<?xml version="1.0" standalone="no"?>
<!DOCTYPE svg PUBLIC "-//W3C//DTD SVG 1.1//EN" "http://www.w3.org/Graphics/SVG/1.1/DTD/svg11.dtd">
<svg xmlns="http://www.w3.org/2000/svg">
<metadata>Generated by Fontastic.me</metadata>
<defs>
<font id="cominovel" horiz-adv-x="512">
<font-face font-family="cominovel" units-per-em="512" ascent="480" descent="-32"/>
<missing-glyph horiz-adv-x="512" />

<glyph glyph-name="naruto" unicode="&#53;" d="M509 324c-6 24-22 43-44 53 2 24-6 47-24 64-17 18-40 26-64 24-10 22-29 38-53 44-24 7-48 2-68-12-20 14-44 19-68 12-24-6-43-22-53-44-24 2-47-6-64-24-18-17-26-40-24-64-22-10-38-29-44-53-7-24-2-48 12-68-14-20-19-44-12-68 6-24 22-43 44-53-2-24 6-47 24-64 17-18 40-26 64-24 10-22 29-38 53-44 24-7 48-2 68 12 14-10 30-15 46-15 7 0 15 1 22 3 24 6 43 22 53 44 24-2 47 6 64 24 18 17 26 40 24 64 22 10 38 29 44 53 7 24 2 48-12 68 14 20 19 44 12 68z m-42-78c13-14 18-32 13-50-5-18-18-32-36-37l-14-4 4-14c4-18-1-36-14-49-13-13-31-18-49-14l-14 4-4-14c-5-18-19-31-37-36-18-5-36 0-50 13l-10 10-10-10c-14-13-32-18-50-13-18 5-32 18-37 36l-4 14-14-4c-18-4-36 1-49 14-13 13-18 31-14 49l4 14-14 4c-18 5-31 19-36 37-5 18 0 36 13 50l10 10-10 10c-13 14-18 32-13 50 5 18 18 32 36 37l14 4-4 14c-4 18 1 36 14 49 13 13 31 18 49 14l14-4 4 14c5 18 19 31 37 36 18 5 36 0 50-13l10-10 10 10c14 13 32 18 50 13 18-5 32-18 37-36l4-14 14 4c18 4 36-1 49-14 13-13 18-31 14-49l-4-14 14-4c18-5 31-19 36-37 5-18 0-36-13-50l-10-10z m-211 157c0 0 0 0 0 0-39 0-75-15-102-43-27-27-43-63-43-102l0-65 30 0 0 65c0 31 12 59 34 81 22 22 50 34 81 34l0 0c63-1 115-52 115-115l0-23c0-46-38-84-85-84-46 0-84 38-84 84l0 14c0 31 25 55 55 55l4 0c28 0 52-23 52-51 0-13-11-24-24-24-13 0-24 11-24 24l0 13-30 0 0-13c0-30 24-54 54-54 30 0 54 24 54 54 0 45-37 81-82 81l-4 0c-47 0-85-38-85-85l0-14c0-63 51-114 114-114 63 0 115 51 115 114l0 23c0 80-65 144-145 145z"/>
<glyph glyph-name="naruto-face" unicode="&#97;" d="M336 492c-2-1-4-2-5-3l-44-44-33 43c-2 2-6 4-9 4-3-1-6-3-8-6l-25-42-64 36c-3 2-7 2-11 0-3-3-5-7-4-11l8-47-57 8c-4 1-8-1-10-4-3-4-3-8-1-11l25-42-51-26c-4-2-6-6-6-10 1-5 4-8 8-9l39-8-16-40c-1-4 0-9 3-11 3-3 8-4 12-1l5 2 0-25c0-1 0-1 0-2 2-6 6-12 12-15-2-2-4-4-6-6-5-7-8-18-7-31 4-37 28-50 35-53 3-17 11-38 27-59 15-24 87-58 102-58 15 0 87 35 102 58 15 21 23 43 26 59 7 3 31 16 36 53 1 13-2 24-7 31-2 2-3 4-5 5 7 3 11 9 13 16 0 1 0 1 0 2l0 21c3 0 7 2 9 4 2 3 2 7 0 10l-16 42 41 17c4 1 7 5 7 9 0 4-2 8-6 9l-52 27 25 52c2 4 1 8-1 11-3 3-7 4-11 3l-60-17-8 50c0 3-2 5-4 7-2 2-5 2-8 2z m-89-28l32-40c2-3 4-4 7-4 3 0 6 1 8 3l37 37 7-42c0-3 2-5 5-7 2-2 5-2 8-1l48 14-19-41c-1-2-2-5-1-8 1-2 3-4 6-5l40-21-29-12c-3-1-5-3-6-5-1-3-1-6 0-8l9-24-46 26c-1 1-3 2-5 2l-194 0c-2 0-4-1-6-2l-46-26 10 24c1 3 1 6-1 9-1 2-4 4-7 5l-22 4 35 17c3 2 5 4 5 7 1 2 1 5-1 8l-19 32 50-7c3 0 7 1 9 3 2 3 3 6 3 9l-7 40 53-30c5-3 11-1 14 4z m-91-157l3 0c-3-6-5-13-5-20l0-21c0-7 2-14 5-20l-46 0 0 36z m39 0l122 0c13 0 21-8 21-20l0-21c0-12-8-20-21-20l-122 0c-13 0-21 8-21 20l0 21c0 12 8 20 21 20z m161-6l43-25 0-30-46 0c3 6 5 13 5 20l0 21c0 5-1 10-2 14z m-226-76l252 0c1-2 2-4 4-6 2-1 6-4 8-8 3-4 5-9 4-17-4-33-26-39-26-39-3-1-4-3-6-5-4 3-9 5-14 7-11 4-22 7-22 7-1 0-3 0-4 0-5-1-9-5-9-10 0-5 3-9 8-10 0 0 10-3 20-6 4-2 9-4 12-6 1-1 1-1 2-1 0-1 0-2 1-3-2-5-5-12-9-18-3 4-8 8-12 12-9 6-17 10-17 10-2 1-4 1-6 1 0 0 0 0-1 0-4-1-8-4-8-9-1-4 2-9 6-10 0 0 7-4 14-9 3-3 6-5 8-8 2-3 3-4 3-5 0-1 0-3 1-4-4-4-9-9-15-13-2 4-6 9-9 12-5 7-11 13-11 13-2 2-5 3-8 3-1 0-1 0-2-1-3 0-6-3-7-7-1-4 0-8 3-10 0 0 5-5 9-10 4-5 6-10 7-12-21-12-44-22-50-22-6 0-29 9-51 22 1 1 4 7 8 12 4 5 9 10 9 10 4 3 5 8 3 12-2 4-6 6-11 6 0 0-1 0-1-1-2 0-4-1-5-2 0 0-6-6-11-13-3-4-7-8-9-13-6 5-11 9-15 13 1 2 1 4 1 5 0 1 1 2 3 5 2 3 5 5 8 8 7 5 14 9 14 9 5 1 9 6 8 12-1 5-6 9-12 8-1 0-2-1-2-1-1 0-2 0-3-1 0 0-8-4-17-10-4-4-9-8-12-12-1-1-1-1-1-1-3 6-6 12-8 18 0 1 1 2 1 4 1 0 1 0 2 1 3 2 8 4 12 6 10 3 20 6 20 6 6 0 9 6 9 11-1 6-6 10-12 9-1 0-1 0-2 0 0 0 0 0 0 0 0 0-11-3-22-7-5-2-10-4-15-7-1 2-3 3-6 4 0 0-22 7-26 40-1 8 1 13 4 17 3 4 6 7 8 8 2 1 4 4 5 6z m70-10c-9 0-16-7-16-15 0-9 7-16 16-16 8 0 15 7 15 16 0 8-7 15-15 15z m112 0c-8 0-15-7-15-15 0-9 7-16 15-16 9 0 16 7 16 16 0 8-7 15-16 15z"/>
<glyph glyph-name="naruto-leaf-village" unicode="&#98;" d="M465 415l-13 16-66-56c-5 4-10 8-16 12-7 4-14 8-21 11-44 20-84 22-120 14-36-8-71-26-97-64-4-7-7-13-11-20-5-13-9-25-10-38l-60-170 210 0 0 0c39 0 73 16 101 52 4 5 7 11 10 17 7 19 9 35 8 51-5 46-41 101-102 103-32 2-69-11-84-50-6-17-6-35-1-49 4-14 13-30 29-41 18-14 41-13 57-4 26 15 27 52 7 70-9 7-22-6-14-14 15-11 10-36-8-42-24-9-46 16-53 36-4 12-4 28 3 42 10 21 29 29 44 32 16 4 36 3 56-9 19-11 30-27 37-42 8-16 11-34 10-51-5-45-44-72-74-79-33-7-77-2-110 28-30 26-46 59-48 93-1 7-1 14 0 21l0 0 0 0c1 12 4 23 9 35 9 21 23 36 38 48 28 22 61 32 98 30 35-1 77-14 112-47 1 0 1 0 1 0l0-1z m-348-189c10-30 30-59 63-82 3-2 5-3 8-5l-109 0 34 100c1-5 3-9 4-13z"/>
<glyph glyph-name="candy" unicode="&#99;" d="M287 393c-86-1-171-86-170-172 0-57 37-94 92-95 89-3 175 81 176 170 0 61-37 97-98 97z m4-223c-17-11-26 5-37 12-31 23-58 51-84 81-15 18-16 32 1 48 7 6 13 14 19 21 21 23 40 26 65 2 27-26 54-52 77-82 5-7 9-14 13-22-12-26-32-44-54-60z m220 201c-5 38-19 47-57 38-8-2-15-5-18 4-5 11 7 12 13 17 6 4 19 2 16 14-2 10-9 17-19 20-12 3-14-9-21-15-4-6-10-12-17-8-7 5-4 13 0 19 8 14 21 28-2 37-21 9-43 27-65 3-25-27-17-84 14-105 16-10 31-23 37-42 7-25 23-32 40-29 16 1 24 2 32 3 26 4 52 9 47 44z m-352-253c-18 5-32 20-43 36-9 15-12 36-39 32-19-3-40 0-58-10-31-19-14-42-7-65 9-24 22-20 38-8 6 4 13 8 19 2 8-9-1-15-8-19-15-11-18-21-3-34 18-17 20 3 25 13 4 6 6 14 15 11 11-4 7-12 4-20-3-12-16-25-4-36 16-14 37-23 59-19 18 4 24 21 27 37 2 11 2 21 4 40 3 16-3 32-29 40z"/>
<glyph glyph-name="bear" unicode="&#100;" d="M395 197c-15 0-30 0-45 0-38-2-68-18-90-49-3-3-4-3-7 0-24 33-57 49-98 49-28 0-56 0-84 0-25 0-44 15-49 39-8 28 14 58 44 59 20 0 40 0 60 0 6 0 6 0 4 6-5 10-8 20-9 31-1 4-3 5-6 6-37 11-58 36-64 73-6 34 11 70 41 88 35 21 80 16 108-13 3-3 6-4 9-2 32 11 63 11 94 0 4-2 6-1 9 2 25 24 55 32 88 21 34-10 55-33 61-68 9-45-19-89-64-101-3-1-5-3-5-6-2-11-5-22-10-32-2-4-1-5 3-5 19 0 38 0 57 0 29 0 50-21 50-49 0-27-21-49-50-49-16 0-31 0-47 0z m-138 191c-23-1-42-8-59-22-30-26-32-70-4-98 31-31 84-34 118-6 33 27 36 72 5 101-16 17-37 24-60 25z m-168 34c1-19 10-33 27-43 3-2 5-1 5 3 7 31 22 56 45 77 3 2 2 3 0 5-16 11-34 12-51 2-17-8-26-24-26-44z m285 51c-9 0-18-3-26-8-5-3-5-3 0-8 22-20 37-45 43-75 1-4 2-5 6-3 20 11 31 34 25 56-5 22-24 37-48 38z m-216-316c43 0 79-35 79-78 0-44-36-79-79-79-43 0-79 36-79 79 0 43 35 78 79 78z m197 0c44 0 79-36 79-80-1-42-38-78-79-77-45 1-80 36-79 81 0 42 37 77 79 76z m-99 145c-16 1-30 5-41 18-11 13-11 30 0 43 18 22 60 24 80 2 15-16 14-37-4-51-10-8-22-12-35-12z"/>
<glyph glyph-name="bat" unicode="&#101;" d="M479 242c0 7-2 13-4 20-4 15-12 29-20 42-6 9-14 18-21 27-9 9-19 18-29 26-2 1-3 2-5 4-1-2-1-3-2-5-5-9-12-19-20-27-8-10-19-17-31-21-8-3-16-4-25-3-12 1-22 5-32 10-1 1-2 1-2 3 0 4-1 8-2 12-1 1-1 1 0 2 5 7 7 16 7 25-1 3-1 6-2 9 0 0 0 0-1 0-1 1-2 1-3 1l-1 0c-3 0-6-1-8-2-5-2-8-5-12-8 0-1-1-2-2-2-1 0-2 0-3 0-4 1-9 1-14 0-1-1-1 0-2 0-3 3-6 6-11 9-2 1-5 2-8 3 0 0-1 0-1 0l-3 0c-1 0-2 0-2 0-1 0-1-1-1-1-2-5-2-9-2-14 0-7 2-15 7-20 1-2 2-3 1-5-1-3-1-7-2-10 0-1 0-1 0-1-7-6-15-9-24-11-6-2-12-2-18-1-9 0-18 3-26 8-8 4-14 10-20 16-11 9-19 20-26 32-1 1-1 1-2 0-11-9-20-20-29-31-9-12-18-25-25-39-8-16-15-31-19-48-1-4-1-8-2-12 0 0 0 0 0-1l0 0c14 6 28 10 42 13 10 2 21 3 31 2 12 0 24-2 35-8 11-6 19-13 25-24 2-3 3-6 4-9 1 0 1 0 2 0 6 6 13 11 22 13 10 2 18 0 26-6 7-5 12-11 16-18 6-9 10-18 13-29 2-5 4-11 5-17 0 0 0 0 1-1 0 2 1 4 1 6 4 11 7 22 12 33 4 7 8 14 13 20 5 6 11 11 18 13 8 2 15 2 22-1 7-2 13-6 19-11 0-1 0-1 0 0 4 6 8 13 13 18 5 5 12 10 19 13 7 4 15 6 23 7 8 1 16 1 23 0 15-1 29-4 44-9 6-2 13-4 18-6 1-1 1-1 1-1l0 8c0 3 0 5-1 7z"/>
<glyph glyph-name="bear-face" unicode="&#102;" d="M407 452c-34 0-62-23-70-55l-164 0c-8 32-37 55-70 55-39 0-71-32-71-72 0-27 16-51 39-63l0-77c0-100 86-180 186-180 99 0 185 80 185 180l0 77c22 12 38 36 38 63-1 40-33 72-73 72z m-245-147c0 10 8 20 20 20 12 0 21-9 21-20 0-12-9-21-21-21-12 0-20 9-20 21z m92-209c-36 0-68 40-68 88 0 49 31 89 68 89 39 0 69-40 69-89 0-48-30-88-69-88z m74 188c-12 0-21 9-21 21 0 10 9 20 21 20 10 0 20-9 20-20 0-12-9-21-20-21z m-108-62c-6 0-12-3-14-8-2-6-1-12 3-16l35-35c6-6 16-6 21 0l36 35c3 4 5 10 3 16-2 6-9 8-14 8z"/>
<glyph glyph-name="foot" unicode="&#103;" d="M458 296c-34 29-73 44-119 43-40-1-68-38-58-76 5-16 7-31 10-46 3-20 7-41 15-61 6-18 19-29 38-34 13-4 25-5 38-5 3 0 6 0 9 0 29 1 48 14 57 42 3 7 5 14 7 21 8 27 15 53 15 82 0 12-1 25-12 34z m-291-1c-40 0-76-15-108-38-10-8-15-18-17-30 0-9 0-19 1-28 4-32 13-62 24-91 2-8 6-14 12-19 14-13 31-18 52-16 2 0 6 0 10 0 51 4 62 21 71 57 9 30 12 61 19 92 3 10 2 22-2 33-11 28-33 40-62 40z m52 0c12 11 15 36 5 49-7 10-18 9-24-1-5-7-7-15-7-24 0-8 2-15 7-22 6-6 13-7 19-2z m82 42c7 0 11 4 14 10 8 12 5 32-4 43-6 6-14 7-20 1-7-6-9-14-9-22 0-8 2-16 6-22 3-5 6-11 13-10z m-139-33c8 0 16 9 17 21 0 1 0 1 0 2 0 7-3 18-8 23-6 6-13 6-19 0-7-8-10-17-7-27 2-12 9-20 17-19z m202 53c6 12 6 23-2 34-7 11-16 10-23 0-4-6-6-12-6-20 0-4 1-10 4-14 8-12 20-12 27 0z m-286-65c8-6 16-4 20 5 3 6 3 12 3 18 0 5-1 9-1 14 0 1-1 3-1 5-3 7-7 9-14 6-10-4-15-13-16-24-1-9 1-18 9-24z m387 66c-7 4-13 1-15-7-1-5-2-11-3-17 0-5 1-11 3-16 1-5 4-10 9-11 6-1 11 1 15 5 11 13 7 38-9 46z m-78-13c8-1 13 3 16 10 6 12 5 23-1 35-5 8-14 9-20 1-6-6-8-15-8-24 0-2 1-6 1-9 2-7 4-13 12-13z m-326-74c3 6 3 12 3 19-1 6 0 12-2 18-3 7-8 9-14 6-9-4-14-12-15-21-2-10-1-20 8-27 8-6 17-4 20 5z m376 67c11 13 7 38-8 46-8 4-13 2-16-6-2-6-1-11-2-18 1-5 0-11 2-16 4-12 15-15 24-6z m-322-35c8-6 17-3 20 5 2 5 2 10 3 15 0 9-2 17-8 24-5 6-11 7-16 3-10-7-13-38 1-47z m351 66c4 1 4 3 3 6-2 9-7 16-13 24 1-9 2-18 3-25 0-5 4-5 7-5z m-420-44c4 0 7 0 8 5 0 7 1 15 2 24-7-8-11-15-13-22-1-3-1-6 3-7z m164 32c4 1 4 4 3 8-2 7-6 13-13 22 1-10 2-17 3-25 0-5 3-5 7-5z m183 49c5 0 4 4 3 7-2 7-6 14-13 22 2-10 2-17 3-24 0-5 4-6 7-5z m-91-4c4-1 7 0 7 5 1 8 2 15 3 25-6-9-10-15-13-22-1-3-2-7 3-8z m-183-41c4-1 7 1 7 6 0 7 1 14 3 22-6-6-11-12-13-20-1-3-2-8 3-8z m-35-12c4 0 7 0 7 5 1 7 2 15 2 22-6-6-10-12-12-19-1-4-2-7 3-8z m344 44c5 1 4 5 3 8-2 8-7 14-13 22 1-9 3-16 3-24 0-5 3-6 7-6z m-269-28c2 0 6 0 6 4 0 8-2 17-4 25-3-8-5-16-6-24-1-3 0-5 4-5z m194 45c4 0 5 2 5 5-2 7-4 16-7 24-3-9-3-17-3-25-1-4 2-4 5-4z"/>
<glyph glyph-name="eagle" unicode="&#107;" d="M480 390l0-8c-2-5-2-11-4-17-9-21-23-37-41-50-22-16-47-27-75-35-2 0-4-1-8-2 9-1 16 0 23 1 25 4 47 14 67 28 9 6 17 13 26 19 1 1 3 2 5 1 1-1 0-2 0-4-2-6-4-13-6-19-4-16-13-29-27-39-22-14-45-17-70-15-6 1-13 2-20 3 2-1 2-2 3-2 16-7 33-9 50-7 9 1 18 2 27 4 4 0 5-1 3-4-5-8-12-16-20-20-18-10-37-10-55-1-5 3-9 6-13 9 4-10 12-17 22-22 4-2 10-4 14-6 1-1 2-1 3-2 0-1-1-2-2-2-4-2-8-5-12-6-10-4-19-3-27 3-6 4-8 9-11 14-1-1 0-3 0-4 0-4 2-8 4-12 7-11 5-14-6-17-9-2-17 1-21 10 0 1 0 2-1 2-1-4 1-8 3-11 1-3 0-5-3-6-2-1-3-1-5-1-4-1-8 0-11-3 2-3 4-5 7-7 8-6 15-12 23-19 3-2 3-3 1-5-5-4-10-6-16-6-6-1-13-1-18-6-3-3-7-4-11-4-7 0-13-3-19-4l-9 0c-4 1-9 3-13 4-7 0-13 2-18 7-2 1-4 2-7 2-9-1-16 2-23 8-2 2-2 2 0 4 6 4 11 8 16 12 5 5 11 9 15 15-4 0-8 0-11 1-7 2-8 4-6 11 1 3 2 5 1 9-5-14-18-16-27-11-5 2-6 5-4 10 2 4 4 7 5 11 2 3 3 7 2 11-2-3-3-5-4-7-6-9-13-13-23-13-9-1-15 3-22 7-1 1-3 1-3 3 0 2 2 2 4 2 7 3 15 6 22 12 6 5 11 10 14 17-1-1-1-1-1-1-1 0-2-1-2-1-10-8-22-13-34-14-22-2-37 7-50 24-1 1-4 4-3 6 2 2 5 1 8 0 15-3 32-5 48-3 9 2 19 4 28 9-2 0-3 0-3 0-11-3-22-4-33-4-20 1-39 5-55 17-8 5-15 11-18 19-6 12-11 25-14 39 0 1-1 2 0 3 2 1 3 0 5 0 3-3 7-5 10-8 23-18 48-33 78-39 10-2 21-3 27-2-2 1-3 1-5 2-32 9-62 22-88 44-13 11-24 25-29 41-3 6-3 12-5 17l0 8c1 0 2 1 2 1 2 4 6 3 9 2l3-1c12-6 23-16 33-24 32-28 66-49 107-58 9-2 12-7 10-16-1-7-2-14-5-21-3-13-6-27-2-41 6-18 19-29 36-35 0 2-1 3-1 4-11 20-17 41-14 63 2 10 5 19 12 27 2 1 3 1 5-1 3-4 7-7 13-9 4-1 8-3 11-7 3-5 6-9 8-15 2 3 3 5 4 8 3 7 8 13 17 15 5 1 9 4 12 8 1 2 2 2 4 0 9-11 12-23 13-37 1-12-2-23-6-34-3-8-7-15-11-22 26 10 38 36 33 63-1 11-6 22-8 34-2 12 1 16 13 18 14 3 28 8 41 14 23 10 43 25 62 41 10 9 20 18 33 24 6 3 10 4 14-1z m-250-88c3 0 4-3 7-4-1 5-1 8-4 11-1 2-1 4 1 6 7 10 16 11 27 10 8-1 14-4 18-12 1-2 1-4 0-5-2-3-3-7-4-11l6 4c1-5-2-11-6-12-1-1-3-1-4 0l-5 4c-6 4-14 4-20 0l0-1c-3-1-5-6-9-3-5 3-7 7-7 13z"/>
<glyph glyph-name="stork" unicode="&#108;" d="M219 215c-1 0-3 1-3 2-20 55-79 85-135 67-20-6-36-18-48-32-1-1-1-3 0-4 1-1 1-1 3-1l1 1c64 20 132-14 154-78 1-1 3-2 5-1 64 18 131-17 152-81 0-1 0-1 0-2 0-1 2-2 3-2 1 0 2 1 2 2 5 19 5 39-2 58-17 56-76 87-132 71z m103 92c-2 0-4 1-4 2-17 48-70 74-118 59-18-6-32-16-43-29-1 0-1-2 0-3 0 0 1-1 3 0 0 0 0 0 1 0 56 18 117-12 136-68 0-1 2-2 3-2 57 17 116-15 134-71l1-1c0-1 1-2 2-2 1 0 2 1 2 2 4 16 4 34-1 51-16 49-68 76-116 62z m155 34c-11 33-46 52-80 42-1 0-2 1-2 2-12 33-47 51-81 40-11-4-21-11-29-19 0-1 0-2 0-3 0 0 1 0 2 0 0 0 0 0 1 0 38 13 80-8 93-46 0-1 1-2 2-1 39 11 79-10 92-49 0 0 0-1 0-1 0-1 1-1 2-1 1 0 1 0 1 1 3 11 3 23-1 35z"/>
<glyph glyph-name="dog-bone" unicode="&#109;" d="M257 219c41 0 82-4 121-16 7-2 11-4 15-10 16-22 45-27 67-11 21 15 27 45 11 67-4 5-4 9 0 14 16 23 10 52-12 67-22 16-51 10-67-12-2-4-5-6-9-7-21-7-42-11-64-15-37-4-76-5-114-1-25 2-51 7-75 15-5 2-8 4-10 7-16 23-46 29-68 13-23-18-26-48-7-71 2-3 2-5-1-7-2-2-4-3-5-5-13-22-7-51 14-66 21-14 50-10 65 11 4 6 9 9 16 11 40 13 82 16 123 16z"/>
<glyph glyph-name="butterfly" unicode="&#111;" d="M228 316c5 10 11 17 19 20-21 72-64 117-66 119-4 5-12 5-16 1-4-4-4-12 0-16 0-1 46-50 63-124z m-39-117c7 0 14 2 19 5 1 21 3 54 10 83-21 60-78 103-146 103-22 0-40-18-40-40l0-55c0-53 43-96 97-96z m-106 92c-4 11-3 20 1 26 7 10 23 13 35 13 20 0 36-19 36-41 0-31-5-42-20-42-14 0-40 6-52 44z m201 25c17 74 63 123 63 124 4 4 4 11 0 16-4 4-12 4-16-1-2-2-45-47-66-119 8-3 14-10 19-20z m-101-130l-58 0c-20 0-35-16-35-35 0-54 44-98 97-98 18 0 33 15 33 33l0 1c-9 29-11 67-12 89-6 6-15 10-25 10z m-1-74c0-8-6-14-14-14-22 0-41 18-41 41 0 8 7 15 15 15l25 0c4 0 8-2 11-4 0-10 1-26 4-38z m258 279c-68 0-125-44-146-104 7-29 9-62 10-82 5-4 12-6 19-6l60 0c54 0 97 43 97 96l0 55c0 22-18 41-40 41z m-11-100c-12-38-37-44-52-44-15 0-20 11-20 42 0 22 16 41 36 41 13 0 28-3 35-13 4-7 5-15 1-26z m-173 32c-18 0-33-59-33-133 0-73 15-133 33-133 18 0 33 60 33 133 0 74-15 133-33 133z m131-137l-58 0c-10 0-19-4-25-10-1-22-3-60-12-89l0-1c0-18 15-33 33-33 53 0 97 44 97 98 0 19-15 35-35 35z m-43-88c-8 0-14 6-14 14 3 12 4 28 4 38 3 2 7 4 11 4l25 0c8 0 15-7 15-15 0-23-19-41-41-41z"/>
<glyph glyph-name="butterfly-filled" unicode="&#112;" d="M480 396c-3 10-19 15-35 17-21 2-46-2-69-12-17-7-33-15-49-28-26-21-39-37-46-46-6-7-7-16-12-19 0 2 0 7-3 8-1 1-2 2-3 2 1 6 7 30 18 44 12 17 26 27 28 29 2 1 5 1 6 2 1 1 2 4 1 4-2 1-5-1-6-3-2-2-20-15-31-30-11-16-17-40-18-45-2 2-4 3-5 3-1 0-3-1-4-2-2 5-8 29-18 44-11 16-29 28-31 30-2 2-4 4-7 3 0 0 1-3 2-4 1-1 4-1 6-2 1-2 16-11 28-29 10-13 16-37 18-43-2-1-3-2-4-3-3-1-3-6-3-8-4 2-8 13-15 23-7 11-17 21-43 42-16 13-32 21-49 28-23 10-48 14-69 12-16-2-32-8-35-17-2-8 8-30 18-44 6-10 8-21 10-33 5-16 11-40 29-46 17-5 50 5 50 5 0 0 0-6-10-11-12-4-18-12-25-24-6-11-10-26-10-33 0-10 2-13 2-19-1-5 1-11 5-15 5-6 3-10 5-15 2-5 9-9 9-9 0 0-1-12 7-19 7-6 15-10 19-14 5-5 9-8 20-10 6-1 9-11 22-11 14 1 14 1 23 4 15 6 21 34 27 60 5 21 8 35 15 39-2-13 0-33 0-33 0 0-1-10 0-12-1-5 1-13 2-13 0-4 3-12 6-12 3 0 6 8 6 12 1 0 2 8 2 13 1 2-1 12-1 12 0 0 3 19 1 33 6-3 10-18 15-39 6-26 12-54 27-60 9-3 8 0 23-1 13 0 16 12 22 13 11 2 15 6 20 10 4 5 12 8 19 14 7 8 7 19 7 19 0 0 7 4 9 9 2 6 0 10 5 15 4 4 6 10 5 16 0 5 2 8 2 19 0 6-4 16-10 27-7 12-13 20-25 24-10 5-10 11-10 11 0 0 33-10 50-5 18 6 24 30 29 46 2 12 4 23 10 33 10 14 20 37 18 44z"/>
<glyph glyph-name="camel" unicode="&#113;" d="M32 312l0 3c8 9 19 13 30 15 20 5 34 16 46 30 9 12 15 26 26 38 2 2 2 5 3 8 3 9 3 18 4 28 1 9 3 18 9 25 3 4 7 6 11 7 13 4 21 2 29 0 12-3 19-9 19-19 0-4 0-7 0-10 1-8 6-13 16-13 8-1 14 4 18 10l11 20c5 9 14 15 25 17 13 2 16 2 26-4 14-4 21-14 20-28 0-4-3-8-2-13 3-23 10-46 24-66 2-4 5-8 10-11 0 4 0 7-1 10-3 11 0 21 7 30 15 19 35 29 59 33 18 3 25-8 19-20-1-3 0-4 3-5 6-1 12-3 17-6 6-3 13-6 16-12 4-7 4-14-1-19-6-5-15-6-22-2-3 2-4 1-5-1-3-5-2-10-3-16-1-15-2-30-2-46 1-24-4-46-17-67-10-16-23-27-43-31-15-2-30 2-36 16-1 1-1 1-2 1 0-8-6-14-13-18-13-7-19-17-18-31 0-6-1-10-6-14-5-6-7-12-8-19 0-15 1-30 3-44 1-13 8-22 21-29 4-2 8-6 12-9 3-4 4-7 0-11l-13 0c-6 3-12 1-19 2-14 1-18 5-15 16 1 2 0 3-3 3-4-1-9-2-14-1-5 1-7 3-5 8 1 3 2 7 2 10 1 15 2 29 10 43 5 11 6 22 3 34-2 6-5 12-5 19 1 7-3 11-8 14-8 4-13 11-15 19-3 9-4 17-3 25 0 3-1 5-4 5-21 3-42 8-60 19-4-16-10-31-15-47-4-12-6-26-4-39 5-24 12-46 29-65 8-8 18-14 28-20 3-3 8-6 6-11-2-5-7-5-12-5-9 0-18 1-26 1-6 1-7 4-6 8 2 7-1 13-5 19-10 16-17 33-24 49-5 11-7 22-14 32-6 9-6 18-2 28 4 7 5 16 5 24 0 11-2 22-3 33-1 5 0 10-2 15-2-1-2-2-3-3-5-15-10-29-14-44-3-13-9-25-8-39 0-9 0-18-3-27-1-5-1-11-1-16 1-11 2-22 2-33 0-1 0-2 1-3 8-3 9-11 10-17 1-5 4-10 9-13 3-2 5-3 7-6 4-5 3-9-4-10-7-3-14-1-21 0-6 2-9 4-9 10 0 5 1 11-1 15-4 9-4 19-3 28 3 12 3 24-2 36-6 14-6 30-5 45 1 11 1 22-1 32-2 18-5 36-4 54 0 9 1 19 1 28 1 5 1 11 1 16-9-6-18-12-29-11-3 0-6-2-8-4-3-2-5-5-8-8-2-2-5-4-8-5-2-1-5-1-5 1 1 5-3 7-5 9z"/>
<glyph glyph-name="cat" unicode="&#117;" d="M377 247c-23 1-45-5-58-26-11-19-11-38-1-58 9-17 32-29 49-27 4 1 9 1 10 6 2 6-3 8-7 10-6 4-13 6-19 10-12 8-16 19-13 33 4 13 13 20 27 22 23 2 44-12 50-37 9-33-7-69-41-92-55-38-139-33-203 3 6 4 12 1 18 2 19 0 39 1 58 1 4 1 10 0 11 6 1 5-1 9-4 13-4 5-9 5-15 6-10 1-20 1-33 2 7 12 13 22 19 32 9 15 14 31 8 48-5 14 1 17 11 19 4-39 18-73 36-106 8-17 22-22 39-21 6 1 15-2 15 8 0 9-4 15-14 15-12 1-17 7-19 19-1 10-4 20-6 29-8 36-2 65 29 87 13 10 20 26 25 41 6 18 4 35-10 48-4 6-8 11-12 16-13 16-9 25 10 30 6 1 12 1 18 3 13 4 20 13 23 25 2 11-11 10-17 15-3 3-7 5-10 9-7 10-17 16-29 16-23 1-42 8-60 21-5 3-13 8-19 3-6-4-4-13-3-20 2-12 9-25 6-34-11-29-1-51 14-73-18-17-33-7-48 2-15 9-31 15-49 17-41 3-76-24-93-70-31-90 14-200 99-241 50-25 103-32 158-24 58 10 101 41 119 98 19 57-14 111-69 114z"/>
<glyph glyph-name="cat-2" unicode="&#118;" d="M321 220c-17 8-30 20-39 37-6 10-11 22-12 34-1 21-1 42 6 62 3 8 6 17 11 23 3 3 4 4 7 0 7-11 15-22 21-33 3-5 6-5 11-4 11 3 24 6 36 2 5-2 10-1 15-3 3-1 5 2 7 4 9 10 18 19 28 29 2 2 3 5 6 4 2-1 1-4 2-6 2-22 5-44 4-66-1-24-7-47-24-64-10-10-22-17-35-20-9-3-10-5-11-14-2-12-5-24-8-36-3-13-7-26-10-40-3-12-7-25-9-37-3-13-6-25-11-38-3-6-5-13-10-18-7-6-13-4-16 4-2 7-2 13-2 19-1 22 2 43 2 64 1 8-1 16-4 23-2 5-6 8-12 8-6 0-9-3-12-8-5-9-7-19-9-29-5-23-8-46-13-69-1-4-3-8-6-12-1-2-3-4-6-3-3 0-5 2-6 4-4 9-5 17-6 25-2 17-6 34-7 51-2 15-3 30-5 45-1 7-2 15-6 21-3 6-7 9-13 9-7-1-9-6-10-11-6-15-7-31-8-46-1-21-3-42-4-63 0-10 0-21-6-31-4-6-10-7-14-1-5 6-7 14-9 21-3 11-6 22-9 33-2 9-5 19-7 28-2 13-5 25-8 38-1 7-3 14-4 21-2 11-5 23-6 35-4 28-8 55-1 83 2 9 5 17 10 26 1 2 2 3 0 5-16 16-20 35-21 57-1 41 23 71 55 86 23 11 48 13 73 9 20-3 36-14 49-31 5-5 9-10 9-18-1-5-1-9-6-12-5-2-8 1-11 3-8 5-14 12-21 16-14 8-30 9-46 8-24-2-39-17-48-38-6-13-6-27 0-41 2-7 4-7 10-3 16 12 35 17 55 15 10-1 20-3 30-7 3-1 4-3 3-6-6-20-6-41-5-61 2-32 16-56 44-72 11-6 24-9 36-12 2 0 4-1 6 1z"/>
<glyph glyph-name="cats" unicode="&#119;" d="M344 139c5-8 6-18 5-28 0-6-2-10-9-11-3-1-6-2-8 0-3 3 0 6 1 9 7 13 3 25-10 31-12 5-23 10-30 21-2 3-4 5-7 4-3-1-3-4-4-7 0-4 0-8 0-13-1-16-10-29-20-41-3-2-7-4-10-4-5 1-7 3-4 8 2 4 5 7 8 10 10 10 5 20 1 30-4 10-11 14-20 13-6-1-12 0-17-2-14-4-17-11-11-23 5-8 9-17 9-26 0-9-7-13-15-11-4 2-5 5-2 7 6 5 5 10 2 14-6 9-13 18-19 27-2 3-6 4-10 4-13 0-26-1-39-6-9-3-14-8-15-18 0-2 0-4-1-6-2-2-3-4-5-3-4 0-3 3-3 5-1 16 6 28 21 36 14 8 19 22 13 37-3 6-6 10-14 8-4-1-9-1-13 0-8 1-11 8-8 15 3 8 5 16 15 19 6 1 1 7 4 10 7-1 10-7 15-11 4-4 8-8 13-11 15-11 30-14 47-4 22 14 47 20 71 11 16-6 28-8 42 1 14 8 28-1 39-9 12-7 23-16 36-23 17-10 33-3 39 15 3 9 1 18-6 25-7 6-16 9-27 7-5-2-8-5-9-11 1 0 1 0 2 0 6-1 12-2 11-11-1-5-11-9-17-8-14 4-19 23-9 35 9 10 32 13 49 7 16-7 25-19 25-35 0-30-32-50-60-40-14 5-25 13-37 22-5 4-10 8-16 11-7 3-13 4-20 1-10-5-11-10-6-20 10-21 20-41 33-61z m-223 122c0 3 3 0 5-1 12-7 21-15 30-24 17-14 29-17 49-6 28 16 58 18 87 4 4-2 8-1 12 2 12 8 26 10 41 4 6-3 12-7 20-11-4 21 5 34 23 40-9 14-21 24-35 31-30 15-63 18-95 14-40-5-78-1-108 28-16 14-32 29-36 52-2 7-6 14-11 19l-2 0c-3-6-6-13-6-21 0-5-3-7-7-9-11-2-20-7-23-17-2-8-6-11-11-14-5-2-10-5-16-6-8-2-7-7-3-12 7-9 18-13 30-13 7 1 11-2 14-8 11-19 23-36 37-53 1-1 3-8 5 1z m282-48c4-3 9-9 15-4 6 7 8 15 5 23-3 8-11 9-19 10 6-8 8-15 3-23-1-2-8-3-4-6z m13-42c-2 3-3 4-7 4-15 0-29 5-40 13-11 8-21 15-31 22-5 4-10 6-17 4-5-3-7-5-4-11 8-14 19-23 33-30 12-7 18-17 18-31 0-7 0-15-10-18-3-1-3-14 0-16 5-3 22 5 23 11 5 17 9 34 4 54 15-12 27-25 35-39 5-9 3-12-6-16-4-1-6-4-6-8 1-5 4-4 7-4 7-1 14 0 21 2 11 2 14 8 8 17-9 16-19 31-28 46z m59 46c-4 1-9 3-13 5-3 1-5 1-6-3 0-7-3-13-6-19 10-1 23 9 30 15z"/>
<glyph glyph-name="cat-face" unicode="&#120;" d="M470 289c-11 56-24 111-38 167-1 4-3 8-9 9-5 1-8-1-11-6-6-7-12-15-18-22-18-25-37-50-55-75-2-3-3-4-6-2-4 2-7 3-10 4-28 8-56 10-84 8-20-1-40-4-59-12-4-1-6-1-8 2-24 33-48 65-72 97-3 4-7 7-12 6-5-1-7-5-8-9-8-31-15-62-22-93-10-45-20-90-25-135-3-30 3-59 19-84 3-4 4-4 8-2 23 13 47 25 71 37 4 2 8 2 11 0 3-3 5-6 4-11-1-4-4-6-7-8-22-11-44-23-67-34-4-2-3-4 0-6 4-4 7-8 11-12 3-3 5-3 9-1 19 11 39 21 59 31 6 3 12 2 14-4 3-5 1-11-5-14-3-2-6-3-9-5-15-7-30-15-46-23 88-61 218-60 303 1-5 2-10 5-15 7l-38 20c-6 3-8 9-5 15 2 4 8 6 14 3 1 0 2 0 2-1 19-10 37-19 55-28 4-3 7-3 9 1 4 3 7 7 11 10 4 5 4 5-1 7-22 12-43 23-64 34-5 2-7 6-7 11 1 7 8 11 16 7 23-12 46-24 69-36 2-1 4-2 5 1 14 22 22 46 21 72-2 25-6 49-10 73z m-359-16c-2 17 3 19 17 21 40 7 84-23 92-66 2-6-1-10-6-13-10-4-22-7-32-7-37 1-66 28-71 65z m205-101c-17-30-34-59-51-89-5-8-14-8-19 1l-51 88c-6 9-1 17 9 17 17 0 34 0 51 0 17 0 34 0 51 0 11 0 16-7 10-17z m28 37c-5 0-8 0-12-1-10 1-21 3-30 7-7 3-9 7-8 13 9 40 45 68 86 67 6 0 11-1 16-3 5-1 8-4 8-10-1-33-21-66-60-73z m-121-40c-3 0-3-1-1-3l17-31c5-9 11-18 16-27 12 20 24 40 36 61-23 0-46 0-68 0z m-34 80c-14 17-31 26-53 26-2 0-4 0-4-4 5-24 26-42 52-42 3 0 7 0 12 1 2 1 3 1 2 4-3 6-5 11-9 15z m189 26c-25 0-51-17-61-41-1-2-1-3 2-4 5-1 8-1 11-1 26 0 46 16 52 41 1 4 0 5-4 5z"/>
<glyph glyph-name="cow-head" unicode="&#122;" d="M108 325c-11 8-21 15-29 25-31 35-24 68 18 88 25 13 53 19 81 20-12-9-26-15-38-25-22-20-22-37 2-55 16-11 33-19 51-25 5-2 10-2 15 0 32 10 64 10 96 0 1-1 3-1 4-1 19-3 73 29 80 47 4 13-4 22-12 30-12 12-27 19-41 29 36-3 71-9 100-32 19-14 22-33 11-57-8-19-24-31-44-45 28-1 50-10 70-23 11-9 10-14 0-22-34-24-68-30-104-9-6 3-11 9-14-3-8-42-19-85-22-129-1-10 0-20 3-29 9-27 2-41-26-48-36-9-73-10-109 2-27 9-32 19-23 46 8 24 1 47-2 69-5 29-11 58-17 87-2 9-4 10-14 5-38-20-73-16-106 11-7 6-8 10 0 17 16 13 30 19 70 27z m153-263c13-1 31 4 48 13 17 9 17 24 2 35-25 17-83 17-109 0-15-10-16-22 0-34 15-12 34-14 59-14z m-157 201c11 0 25 6 38 13 15 9 14 18 0 27-30 20-68 16-96-7-5-4-8-7-1-12 16-12 34-20 59-21z m307 1c22-1 40 8 56 20 4 3 7 5 1 10-24 25-73 29-101 8-10-9-10-17 1-24 13-9 28-15 43-14z m-88-14c0 8-5 13-11 13-8 1-14-4-14-12 0-7 5-12 12-12 8 0 12 4 13 11z m-109-1c0 9-5 14-11 14-8 1-13-4-13-12 0-7 4-12 11-12 7 0 11 4 13 10z"/>
<glyph glyph-name="crab" unicode="&#66;" d="M322 458c45-14 73-47 96-86 3-5 4-8-3-11-6-2-12-7-17-11-4-3-6-2-9 2-6 6-12 12-17 19-7 9-17 13-28 15-13 1-26 4-37 8-15 6-22 17-21 32 7-6 14-13 22-18 6-4 13-8 20-9 7-2 15-1 19 5 5 7 3 14-1 20-9 13-21 21-35 27-4 2-9 2-11 7 0 0 22 0 22 0z m-111 0c-1-4-5-4-7-5-11-5-22-11-30-19-5-3-8-8-10-13-3-5-4-11 0-17 4-5 10-7 17-6 14 2 24 10 34 19 3 2 6 6 9 9 3-10-1-21-12-28-10-6-22-9-33-11-3 0-7-1-11-1-12-1-22-6-30-16-3-5-8-10-12-14-9-10-5-10-18-2-3 2-6 5-10 6-10 3-8 8-3 15 19 32 42 61 78 77 5 2 11 4 17 6z m16-96c7-4 9-9 11-14 2-7 3-14 4-21 1-5 3-8 8-4 2 2 5 3 8 1 7-5 9 0 10 6 3 9 6 19 12 26 2 3 4 5 6 3 3-2-1-3-2-5-4-7-5-16-6-24 0-5 4-5 7-6 22-9 43-18 61-32 11-8 18-19 14-33-7-35-20-66-49-87-39-29-94-20-127 17-16 18-25 38-30 61-4 20 3 33 19 43 16 10 33 17 51 23 5 2 7 5 7 11 0 11-2 22-4 35z m-136-3c1 0 2-1 3-2 22-14 43-29 63-46 5-4 7-7 1-12-15-13-14-13-30-1-13 10-27 21-38 33-8 9-9 18-2 26 1 1 1 2 3 2z m337-13c-1-6-3-11-7-15-14-15-31-28-48-41-5-3-9-2-13 2-1 1-2 2-3 4-10 10-10 10 1 19 18 14 36 27 55 40 3 1 6 6 8 4 4-3 7-8 7-13z m52-44c-13-32-29-58-56-77-10-8-21-16-33-21-11-4-21-5-32-2-3 1-5 2-3 6 3 4 4 9 7 14 1 2 2 3 5 2 10-5 19 0 28 3 34 13 59 36 78 67 1 1 2 3 4 6 0 0 0 0 2 2z m-447 0c7-12 15-23 23-34 18-22 42-35 68-44 5-2 10-3 15-2 2 1 6 5 8 1 4-5 6-12 9-18 0-2-3-2-4-3-11-3-21-2-31 2-43 20-72 51-89 95 0 1 0 1 1 3z m4-86c37-23 77-27 118-23 8 1 8-5 10-8 8-12 7-15-7-14-42 2-82 11-116 38-2 1-5 3-5 7z m435-2c-8-11-18-17-30-23-26-11-54-18-83-21-6 0-15-1-17 4-2 6 6 12 9 19 1 2 4 0 6 0 32-4 63 0 94 10 7 3 14 7 21 11z m-343-149c-8 21-2 40 10 58 9 17 24 30 36 44 2 2 3 2 5 1 2-2 4-3 6-4 12-8 12-8 0-17-9-8-20-15-29-23-18-16-30-34-28-59z m254 0c2 30-16 49-37 66-9 7-18 14-27 21-4 3-5 5 0 9 14 8 14 9 26-3 15-17 30-34 37-56 5-12 6-25 1-37z m-72-11c2 24-5 46-16 67-2 3-4 7-5 11-2 5-8 11-5 16 4 5 12 2 19 2 2 1 3-1 4-4 5-21 11-43 9-66 0-9-1-18-6-26z m-111 0c-7 15-7 30-6 46 2 15 6 30 9 45 1 4 2 6 6 5 19 0 23 4 12-18-12-25-23-50-21-78z"/>
<glyph glyph-name="dog" unicode="&#69;" d="M461 191c6-3 12-5 19-6 0 1 0 1 0 1-29 15-54 35-75 59-3 3-5 6-4 10 0 4-1 8-1 12-3 23-14 39-38 46-12 4-25 6-37 6-16 0-31 0-46 0-19 0-39 1-58 6-19 4-37 13-49 29-2 2-3 3-4 5-6-9-14-17-22-25-6-5-12-11-18-17-12-13-15-28-9-45 4-9 9-18 15-26 1-1 2-3 2-5 1-34 1-67 0-100-1-17-2-32-6-48 0-3 0-3 2-3 7 0 14 0 21 0 3 0 4 1 4 3 1 8 2 15 4 22 1 4 2 8 5 12 1-1 1-1 1-1 0-11-1-23-5-33-1-3-1-3 2-3 5 0 10 0 16 0 1 0 2 1 3 2 2 7 3 14 5 22 2 15 2 31 4 46 2 16 7 29 19 40 6 4 12 8 18 11 20 9 41 14 61 19 12 3 21 1 29-7 3-3 5-5 8-7 9-11 19-22 28-33 10-10 18-22 24-35 4-10 7-21 3-32-2-7-6-14-11-20-1-2-2-3-1-4 0-2 2-2 3-2 7 0 14 0 20 0 2 0 3 1 4 3 1 4 2 9 3 14 1 12 1 23 2 35 0 4 0 8 1 12 1 2 1 3 4 1 11-12 15-25 13-42-1-7-3-14-5-20 0-2 0-3 2-3 6 0 12 0 17 0 2 0 3 1 3 3 2 20 2 41 1 62 0 1-1 2-2 3-13 10-23 25-29 41-5 11-8 23-9 36 2-2 3-3 4-4 18-16 37-30 59-40z m-302 177c1 1 1 2 0 4-6 9-13 19-19 28-5 7-10 13-18 18-12 6-25 5-38 1 0 0-1 0-1-1-4-8-11-12-19-16-8-3-17-4-26-6-5-2-6-3-6-8 0-8 6-20 13-24 10-7 22-8 34-4 1 1 2 1 4 1 14-4 25-10 30-24 1-2 2-2 4-2 19 5 32 16 42 33z"/>
<glyph glyph-name="wolf" unicode="&#70;" d="M239 172c-18-38-29-79-29-122-12 9-27 44-34 78-31-20-55-47-81-74 2 39 13 73 33 105-15 2-60 2-96-16 19 43 42 81 83 106-15 3-28 3-42 2-14-2-27-4-41-7 23 29 51 51 87 66-11 9-22 18-33 25-12 8-25 13-37 18 6 1 11 2 17 2 25 2 50 1 75-3 2-1 4-2 5-5 2-10 6-20 12-31 5 3 10 6 15 9-13 23-15 49-12 74 2 23 9 44 22 63 13-28 26-55 38-82 13 1 26 2 38 2 23-1 45-5 66-15 9-5 18-5 27-3 39 4 78 9 117 7 4 0 7 0 11 0-2-12-4-22-7-33 0-1 0-1-1-2-7-9-14-19-22-28-3 8-5 16-8 25-7-9-14-19-22-28-2 8-4 16-6 24-8-9-15-18-22-27-3 8-5 16-7 26-8-11-15-20-23-30-3 9-5 17-7 27-4-8-7-14-10-19-9-13-13-26-12-42 0-5 0-11 0-17 7 10 14 19 22 28 2-8 5-16 7-26 8 10 15 20 23 30l7-25c7 10 14 18 21 28 2-9 4-17 7-26 8 10 15 19 23 29 2-8 3-15 5-21 1-2 0-3-1-5-5-9-9-18-14-27-1-2-3-3-5-3-54-2-107-10-158-25-16-5-30-12-45-18-1-1-3-2-6-4 4 20 8 39 12 58-13 3-27 3-42-1 9 18 17 35 26 53-5 3-10 5-15 8-16-31-31-61-46-92 19 6 36 15 56 16-6-25-11-50-17-77 15 9 30 17 45 26z m81 179c-18 6-35 13-55 8 6-14 17-23 30-27 1 0 2-1 2-1 11 1 20 9 23 20z"/>
<glyph glyph-name="dolphin" unicode="&#72;" d="M480 66c-1-3-3-3-4 1-3 5-9 7-13 11-6 3-13 7-19 10-2 1-3 1-4 1-7 0-13 3-18 8-4 4-7 4-10-1-5-7-12-12-20-15-10-2-17-7-23-15-1-2-3-3-4-5-4-1-4-1-5 2-1 7 1 14 4 20 7 22 18 42 30 62 1 1 1 2 0 5-9 17-21 33-35 48-11 13-24 26-37 37-15 13-31 25-47 37-25 18-51 34-78 49-5 3-10 5-15 7-2 1-2 3-1 5 3 4 6 8 10 12 3 2 2 4 0 6-1 3-3 1-5 0-3-1-5-4-7-7-7-11-12-23-16-36-4-11-7-21-9-33-6 5-9 10-12 16-5 13-6 26-7 40-1 5-1 11-1 15 0 2 0 4-2 5-13 7-28 11-42 15-13 4-26 6-39 7-9 1-17 3-19 12 0 2 0 3 0 5 2 4 5 6 9 8 8 4 16 7 25 9 2 0 4 2 6 4 12 20 30 32 52 37 15 4 30 4 45 3 26-2 51-10 75-20 2 0 3 0 5 1 13 10 27 17 44 19 14 2 28 0 40-6 1-1 3-2 3-4 0-1-2-2-3-2-4-1-8-3-11-5-12-8-17-20-20-33-1-3 0-5 3-7 14-11 27-23 40-37 21-23 36-49 49-78 6-14 11-30 15-45 6-26 7-52 6-78 0-2 1-4 3-5 11-7 20-14 29-24 10-10 19-22 26-35 3-6 5-13 7-19 0-3 0-5 0-7z m-192 80c-19 13-41 16-64 15-19-2-36-8-54-16-23-11-48-15-74-15-13 0-26 1-39 4-1 0-2 1-3 0 0-1 0-2 1-3 1-4 4-6 7-8 10-7 21-11 33-14 25-5 49-1 72 8 13 4 26 10 39 14 25 7 51 9 77 5 4-1 9-1 13-2 4 0 2 1 2 3-3 4-6 7-10 9z m-7 63c-27 13-55 13-83 5-12-3-22-9-33-13-34-14-69-16-106-10-1 1-4 3-5 0 0-1 2-3 3-5 0 0 0 0 1-1 4-5 11-8 17-11 31-13 61-11 91 1 10 3 19 8 29 11 29 11 59 13 90 8 4 0 8-1 12-2 3 1 1 3 0 4-4 6-10 10-16 13z"/>
<glyph glyph-name="fish-bone" unicode="&#75;" d="M113 185c-22 8-43 4-62 8-17 3-21 9-18 24 9 51 41 87 81 118 17 14 36 24 56 34 24 11 28 8 29-17 1-23 2-45 3-68 1-8 1-12 12-10 28 3 29 2 27 31-1 9-2 20 9 21 12 1 10-12 11-20 1-6 0-13 3-18 3-6 9-2 14-1 9 3 4 9 4 15-1 9-15 22 0 28 17 5 14-13 19-22 3-7 3-16 15-13 11 3 15 8 10 19-4 8 1 13 7 15 8 2 10-5 13-10 3-6-1-17 11-16 9 1 14 8 18 15 14 26 27 52 42 78 9 17 14 17 24 1 17-25 16-29-2-53-20-25-20-25 4-47 9-7 17-14 25-21 11-9 18-17 6-31-19-22-27-24-43-11-19 15-38 30-57 45-4 3-7 6-12 4-5-3-2-8-2-11 0-5 3-11-4-13-8-2-13 1-16 8-2 11-8 12-17 9-10-3-13-6-8-15 3-6-2-10-7-13-6-2-11 1-13 7-3 14-12 13-23 10-12-3-8-13-8-21 1-8 4-19-6-20-13-2-12 10-14 18-2 5 4 19-10 14-11-4-32 6-31-20 2-30 2-60 4-90 1-18-6-28-23-33-29-10-60-15-90-3-21 8-23 18-10 36 5 7 10 13 15 20 4 6 9 12 14 19z m18 81c-1 12-5 16-12 17-8 0-13-4-13-13 1-7 6-12 14-11 7 0 11 5 11 7z"/>
<glyph glyph-name="elephant" unicode="&#79;" d="M470 295c-2 6-7 5-11 3-6-1-4-5-3-8 4-11 7-23 6-35 0-16-9-25-25-26-25-1-53 16-64 39-12 24-11 50-13 76-2 44-23 69-64 74-39 5-78 3-116-6-54-13-92-43-107-98-4-14-12-23-25-29-3-2-8-4-12-5-4-1-4-5-4-8 1-5 4-6 8-4 8 2 16 5 25 8-5-59 2-117 8-175 1-6 3-8 9-9 13-2 26 0 39 1 15 1 15 0 15 15 0 23 1 45 2 67 1 20 11 32 29 37 11 4 23 5 34 3 32-5 52-18 59-51 4-19 7-37 9-55 2-16 2-16 19-17 10-1 21 0 31 1 6 0 8 2 9 8 5 35 8 69 11 104 2 14 1 14 15 10 28-9 56-16 86-14 19 1 31 9 37 26 8 24 0 46-7 68z m-217 57c-3-17-2-34 3-50-9 14-9 31-7 47 1 9 4 19 10 26 5 8 12 14 22 11-16-1-25-13-28-34z m80-19c-6 0-5 5-5 10 0 3 0 6 4 7 4-2 6-5 6-10 0-3 0-7-5-7z"/>
<glyph glyph-name="fish" unicode="&#83;" d="M388 255c-1 39 26 61 49 68 13 4 25 4 38 0 4-1 5-4 5-8-1-26-13-46-36-58-2-2-4-3-6-4 0 0 0 0 0-1 2-1 4-2 6-3 22-13 35-32 36-59 0-4-1-6-6-8-40-12-85 19-86 62 0 2 0 4 0 6-3-1-3-3-5-5-26-41-61-70-108-86-5-2-5-4-3-8 3-8 4-15 5-24 0-4-2-6-6-8-26-7-55 2-73 24-2 3-4 4-9 5-65 8-115 39-153 93-5 8-6 14 0 23 30 44 70 74 123 88 2 0 4 2 5 4 20 30 50 40 84 39 6 0 12-1 18-3 4-1 6-2 6-6 0-12-3-21-9-31-1-2-3-3 1-4 53-16 93-48 123-96 0 0 0 0 1 0z m-287-43c23 0 41 18 41 40 0 23-19 41-41 41-22 0-41-18-41-41 1-22 19-40 41-40z m130 61c1 1 1 1 1 1 15 13 16 26 2 40-3 3 0 3 1 4 7 7 10 14 8 24-1 9-11 17-20 17-2 0-4 1-4-2 0-2 2-2 3-3 2 0 3 0 4 0 12-4 17-17 11-27-4-5-9-9-15-9-1 0-3 0-3-2 0-2 1-3 3-3l2 0c9-3 16-9 15-18 0-9-6-16-15-18-2-1-5-1-6-4 0-3 4-2 6-2 9-3 15-10 15-20-1-8-7-15-16-16-2-1-5-1-5-3 0-3 3-2 5-2 9-2 16-8 17-17 0-9-7-17-16-19-1-1-5 0-5-4 0-3 4-2 6-2 13-3 18-15 12-27-3-5-8-8-14-9-2 0-4 0-4-3 1-3 3-2 5-2 4 1 8 3 12 5 12 11 11 27-4 39 7 5 12 11 12 20 0 10-5 16-12 21 15 15 15 27-1 41z m206 35l0-2c-2 0-3-1-5-2-21-12-33-29-32-53 1-24 13-41 35-51 6-2 12-3 19-4 3 0 6 0 6 4 1 3-2 4-5 4-2 0-4 0-6 0-22 4-39 22-41 45-1 23 12 43 34 51 5 1 10 2 14 2 3 0 4 1 4 4 0 2-1 3-3 3-10 0-19 0-29 0l0-1c3 0 6 0 9 0z m-170-97c16 14 16 27 0 42 16 13 16 28 0 41 2 1 3 3 4 4 7 7 10 15 7 24-3 8-8 13-17 15-2 1-6 2-7-1-1-4 4-3 6-3 9-3 14-9 14-18 0-9-6-16-15-18-1-1-5 0-5-3 0-3 3-2 5-3 10-2 15-9 15-18 0-9-6-16-15-18-2 0-5 0-5-2-1-3 3-3 5-3 9-3 15-9 15-18 0-9-6-16-15-18-2-1-5 0-5-3 0-3 3-2 4-3 6-1 11-4 14-9 6-12-1-24-14-27-1 0-4 1-4-3 0-3 3-2 5-2 2 0 3 1 5 1 16 7 22 30 3 43z m-71 83c2 2 4 3 5 5 6 7 8 15 5 24-3 8-9 13-18 14-2 1-5 2-5-1-1-3 2-3 4-3 10-2 16-9 16-18 0-9-6-16-16-19-2 0-5 1-5-2 0-3 3-2 5-3 10-2 16-9 16-18 0-9-6-15-16-18-2-1-4 0-4-2-1-3 2-3 4-3 10-3 16-9 16-19 0-8-6-15-16-17-2-1-4 0-4-3 0-3 2-2 4-3 10-2 16-9 16-18 0-9-6-16-16-18-2 0-5 0-4-3 0-3 3-2 4-2 11 1 19 11 20 21 1 10-3 17-11 23 16 14 16 26 0 42 15 13 15 28 0 41z m107-21c2 2 4 3 5 5 7 7 8 16 5 25-3 8-9 12-18 14-2 0-5 1-5-2-1-3 2-2 4-3 11-2 16-9 16-18 0-9-6-16-16-18-2-1-4 0-4-3 0-2 2-2 4-2 10-3 16-9 16-19 0-9-6-15-16-18-2 0-4 0-4-2 0-3 2-3 4-3 10-2 16-9 16-18 0-9-6-16-17-18-1 0-4 0-3-3 0-3 2-2 4-2 11 1 19 10 20 20 1 11-3 18-11 24 16 13 16 28 0 41z m-133-21c0 6-1 11-2 16-4 21-15 38-33 49-2 1-4 3-5 1-3-2 2-2 2-4 1 0 1-1 2-1 40-30 40-91-1-121l-3-3c-1 0-1-1-1-2 1 0 2-1 2 0 2 0 3 1 5 2 22 15 33 36 34 63z m168 0c2 2 5 4 6 6 6 7 8 14 5 23-3 9-9 14-18 15-2 0-5 1-5-2-1-3 2-2 4-3 10-2 16-8 16-18-1-9-7-15-17-18-1-1-4 0-4-2 0-3 3-3 5-3 10-3 16-9 16-18 0-10-7-16-17-18-2-1-4 0-3-4 0-2 2-1 4-1 14 1 23 15 20 29-2 6-6 11-12 14z m-237-21c-12 0-22 10-22 22 1 11 11 21 22 21 12 0 22-10 22-22 0-11-10-21-22-21z"/>
<glyph glyph-name="fish-2" unicode="&#84;" d="M95 237c-1 14 0 29 7 42 0 2 0 3-2 4-8 4-17 10-26 13-9 4-22 3-29-5-6-5-8-10-10-17-1-4-2-8-2-12-1-8-1-23 0-30 0-4 1-8 2-12 6-20 18-28 38-24 10 3 19 10 28 15 2 1 1 3 0 4-3 6-5 14-6 22z m123-55c-8 18-12 37-13 56-1 12 0 24 2 36 3 19 9 37 19 53 1 2 1 4-1 5-8 3-16 6-24 10-15 4-29 9-45 8-6-1-12-3-16-8-5-9-5-19-4-28 1-8 6-15 12-21-7-4-14-8-21-10-3-1-5-3-6-6-3-12-5-24-4-37 1-9 2-16 4-24 1-3 3-5 5-5 6-2 11-5 16-8 2-1 2-2 1-3-5-10-8-20-7-32 0-10 5-20 16-23 13-3 26-2 39 1 12 2 24 8 35 12 3 1 3 2 2 4-4 6-7 13-10 20z m143-5c-8 15-14 30-17 47-1 7-2 15-2 22 0 12 1 23 4 35 4 15 11 28 19 41 3 5 7 8 10 12 2 2 2 4 2 6-6 20-19 35-36 46-9 6-17 10-27 12-31 10-45 0-45 0-7-2-11-6-14-14-4-11-3-23-3-34 0-6-1-12-4-19-9-22-14-45-16-69-1-14-1-27 0-40 3-17 6-34 13-50 6-14 10-28 9-43-1-6 1-12 6-16 1-1 3-1 4-2 0 0 24-6 48 6 7 3 14 7 19 13 4 3 7 7 11 10 4 5 9 7 15 8 8 1 15 4 23 6-8 7-13 14-19 23z m114 87c-5 12-15 22-25 30-16 14-34 25-53 34-2 2-4 1-5-1-7-12-14-24-18-37-5-18-7-37-5-56 1-13 4-26 8-38 4-13 11-24 19-35 0-1 1-2 2-1 5 2 10 4 14 6 18 9 35 20 48 36 6 7 12 15 16 23 1 4 2 8 3 13 1 4 1 12 0 15 0 5-2 8-4 11z m-48-34c-8 0-16 8-16 17 0 9 8 16 17 16 9 0 16-8 16-16 0-9-7-17-17-17z"/>
<glyph glyph-name="fish-1" unicode="&#85;" d="M32 335c5-23 14-44 26-65 19-31 43-56 75-75 17-11 35-18 55-24 2-1 4-2 6-4 20-22 44-38 72-48 1-1 1-1 3-1 1 8 2 17 3 25 0 7 1 13 2 19 0 1 2 3 3 3 29 4 55 13 80 28 1 0 1 1 3 1 14-32 34-60 61-83 0 2 0 4 0 5 1 29 2 59 3 88 0 3 1 6 3 9 17 24 34 49 51 73 1 1 1 2 2 3-36-2-68-13-99-31-19 44-47 78-88 103 10 0 33-11 56-27 3 18 5 35 8 52-47 15-93 23-141 5 31-83-13-152-49-174 12 11 21 23 29 37 16 32 20 65 10 100-3 14-9 26-17 38-1 1-3 2-4 2-24 1-47-2-70-9-19-6-37-13-54-25-9-6-19-13-28-20-1-1-1-3-1-5z m83-9c11 5 23 1 28-9 5-10 1-23-9-28-10-5-23-1-28 9-5 11-1 23 9 28z"/>
<glyph glyph-name="fish-3" unicode="&#86;" d="M480 254c0 16 0 32 0 49 0 8-1 9-9 5-15-6-31-13-47-20-8-4-13-4-21 4-26 27-54 51-89 68-1 1-3 1-3 4 1 2 2 4 4 4 9-1 17 3 27 3 14-1 29 0 44 0 2 0 6-2 7 2 1 3-2 5-4 7-9 8-19 13-29 19-21 13-43 21-68 20-28-1-53-10-76-28-10-8-19-16-32-18-12-3-13-6-9-16 4-11 6-23 8-34 3-19 5-38 6-56 1-23 1-45-3-67-3-18-8-36-17-52-2-3-2-5 2-7 13-4 27-9 41-10 5-1 10-1 13-5 15-12 31-20 49-26 10-4 21-6 32-7 6 0 12 0 16 5 3 6-1 11-4 15-5 7-10 15-15 23-2 4-3 6 3 9 11 6 22 11 32 18 28 18 53 40 75 65 4 4 7 5 12 2 16-10 33-19 49-29 3-1 6-2 6 3 0 17 0 34 0 50z m-320 105c-1 4-3 7-8 3-8-4-16-7-23-12-37-23-69-52-95-86-2-3-3-5 0-8 18-15 36-28 61-26 2 1 6 1 6-3 0-3-3-4-6-4-11-1-21 1-32 5-7 2-12 7-19 9l-2-3c7-6 13-13 19-20 26-25 53-47 84-64 7-3 9-2 11 4 9 20 16 41 18 63 4 48-3 95-14 142z m-50-103c-13 0-22 10-22 24-1 14 12 23 23 23 13-1 23-11 23-24 0-12-12-23-24-23z m1 36c-7 0-13-5-13-11 0-8 6-14 13-14 6 0 12 7 13 13 0 7-6 12-13 12z"/>
<glyph glyph-name="fox" unicode="&#87;" d="M479 224c-3 20-13 36-23 52-6 11-13 23-19 34-2 4-1 6 2 8 11 8 18 18 23 30 11 30 12 61 6 91-2 9-5 18-9 25-4 8-10 13-19 12-6-1-13-3-19-6-31-15-57-36-82-60-3-3-5-5-10-4-11 2-23 3-35 3-36-1-74-2-111-3-3 0-7 2-9 3-11 9-20 18-30 27-19 15-37 28-59 37-18 7-28 1-35-14-3-4-4-9-5-14-6-23-6-45-3-67 3-22 10-43 28-57 6-5 6-8 3-13-7-13-14-25-22-38-10-17-18-34-19-51 0-21 5-30 21-37 9-5 19-8 29-12 34-11 69-25 97-49 2-3 5-7 5-10 4-20 12-38 25-53 23-28 61-29 86-4 16 15 24 34 29 54 1 4 2 8 4 9 16 12 32 24 49 32 25 12 52 20 78 31 21 8 28 22 24 44z m-355 133c-15 3-27 12-35 24-14 19-17 40-17 63 22-21 43-43 59-68 2-2 3-4 3-6 1-4 1-8 2-13-4 0-9-1-12 0z m79-144c-6-3-13-6-20-7-11-1-23 3-34 4-1 0-4 1-4 2-1 8-3 16-3 25 0 4 3 6 9 6 18-3 36-7 52-17 8-5 8-9 0-13z m80-135c-1-13-8-24-20-30-8-3-15-2-21 3-10 6-15 17-16 28-1 8 2 13 10 15 6 1 12 1 19 2l0 0c5 0 10 0 14-1 11-1 15-6 14-17z m83 149c-1-16-3-13-18-18-7-2-16-3-23-3-7 1-14 4-21 8-7 3-7 8 1 12 9 4 18 8 27 11 8 3 16 4 24 6 7 1 10-3 10-9 0-2 0-5 0-7z m31 135c-6-3-13-5-20-6-7-1-10 3-7 10 5 8 9 17 16 25 15 18 31 36 47 54 4-29-8-69-36-83z"/>
<glyph glyph-name="fox-2" unicode="&#88;" d="M480 63c-3 10-9 18-20 20-7 1-11 5-16 10-2 3-4 6-6 8-3 3-4 7-4 11 0 31 0 63 0 95 0 3 1 7 3 10 27 48 22 96-8 141-22 31-44 61-67 92-1 2-2 4-5 4l0-53-1 0-39 54c-1-15-1-29-1-42 0-10 2-20-1-28-3-8-12-14-19-21-3-4-7-5-12-5-14 0-27 0-41 0 0-1 0-2 1-3 8-29 36-51 67-52 12 0 23 0 36 0-2-3-3-4-5-6-28-28-56-55-83-83-18-18-33-37-42-61-12-30-14-61-14-92 0-5 3-4 6-4 19 0 37 0 56 0 42 0 84 0 125 0 6 0 7 2 6 7-3 10-13 18-23 18-7 1-14 0-22 0 13 20 17 35 13 62 2-3 4-5 5-7 20-25 41-50 61-76 2-2 3-5 7-5 13 1 26 1 38 0 5 0 6 2 5 6z m-141 288c-5 0-9 4-9 9-1 5 4 10 9 10 5 1 10-4 10-9 0-5-4-10-10-10z m-224 1c-27 10-56 6-83 6 30-9 44-33 43-63-1-41 0-82 0-123 0-60 45-109 105-114 8 0 8 0 8 9l0 179c0 48-29 90-73 106z"/>
<glyph glyph-name="frog" unicode="&#48;" d="M53 235c0 26 4 51 14 75 1 2 1 3-1 5-22 23-31 51-27 82 2 20 11 37 24 52 17 17 37 28 60 30 36 4 65-8 88-36 1-2 4-4 5-7 1-1 2-2 3-1 17 3 33 4 50 3 8-1 16-2 23-3 2-1 3 0 4 1 9 14 21 25 36 33 12 6 23 9 36 11 14 1 29-1 44-6 23-10 41-26 52-49 18-36 11-78-16-108-4-4-4-6-2-10 5-12 8-24 10-37 2-12 3-25 3-38-1-33-9-65-25-95-17-29-39-54-67-72-24-16-50-26-79-31-8-1-18-2-26-2-15 0-30 1-44 3-19 4-38 11-56 20-22 11-41 26-58 44-13 16-25 33-33 52-10 20-15 42-17 64-1 7-1 13-1 20z m203-50l-158 0c-2 0-3 0-5 0-2 0-2-1-2-2 4-10 8-21 13-30 10-17 22-31 36-44 11-10 23-18 36-25 14-7 30-13 47-16 12-2 24-3 37-3 15 0 29 3 43 6 11 3 23 8 33 13 14 8 27 17 39 28 6 6 12 12 18 20 7 9 13 18 18 29 4 7 7 14 9 21 1 3 1 3-2 3-8 0-17 0-25 0z m-121 262c-35 0-64-28-64-64 0-35 28-64 63-64 35-1 65 28 65 63 1 36-29 65-64 65z m242 0c-35 0-64-29-64-65 0-34 29-64 64-63 37 0 64 31 64 65 0 35-29 63-64 63z m-240-98c0 10 8 19 19 20 12 1 21-9 22-19 0-11-9-20-19-21-12-1-22 8-22 20z m254-20c-12 0-21 9-20 21 0 9 8 20 21 19 11 0 20-9 20-21-1-11-10-20-21-19z"/>
<glyph glyph-name="giraffe" unicode="&#51;" d="M458 407c-6 2-13 3-19 4-21 1-42 0-62-8-13-5-25-13-31-27-4-9-10-18-16-26-2-3-3-3-5-1-20 12-28 35-18 57 8 19 14 39 16 61 1 6 0 10-6 13l-20 0c-5-2-6-6-7-11-2-20-8-40-19-58-2-5-5-11-9-14-4-4-8-4-12 0-6 6-10 14-14 22-8 16-12 33-14 50-1 5-2 9-7 11l-20 0c-6-3-9-8-8-16 3-19 8-39 16-56 11-22 2-47-18-58-2-1-3-1-4 1-5 7-10 14-14 22-7 18-22 27-40 33-22 6-46 7-69 2-1 0-3 0-4-1-3-1-5-3-5-6 2-32 19-52 47-65 18-7 38-10 58-11 4 0 5-1 3-4-4-16-5-14 10-13 5 0 10 2 15 2-2-3-5-6-8-7-5-3-11-5-16-7-7-3-14-8-14-17-1-9 2-16 10-21 0 2 1 3 1 4 3 7 10 10 17 7 8-3 13-10 17-18 1-2 0-3-1-4-7-5-14-9-24-7 3-7 5-13 9-18 9-18 18-35 23-54 4-14 3-28-2-41-1-4-2-7-4-10-5-13-3-25 3-37 5-9 11-16 18-22 4-3 7-6 10-9 8-8 17-15 29-17l12 0c24 8 42 25 55 46 9 12 10 25 4 39-6 13-9 27-7 41 2 15 7 28 14 41 6 13 14 27 20 41-10-3-17 2-25 8-1 0-1 1 0 3 3 7 7 13 13 17 11 6 19 2 22-10 8 3 12 10 11 18-2 10-7 15-15 19-5 2-10 5-15 7-4 1-7 3-10 7 7-1 14-2 20-3 9-1 10 0 7 8-1 3-2 5-3 8-2 3-1 3 2 3 15 0 29 2 43 5 18 5 34 12 46 26 13 13 18 29 19 46 0 4-3 5-5 5z m-220-334c-1-2-2-3-4-3-2 1-4 2-5 4-6 9-13 19-21 28 9 0 15-2 22-4 4-1 7-4 8-8 1-6 1-12 0-17z m46-1c-1 0-2-1-2-2-5-3-7-2-8 3-1 5-2 10 0 16 1 4 4 7 9 8 6 2 13 3 21 4-8-10-15-19-20-29z"/>
<glyph glyph-name="gorilla" unicode="&#55;" d="M278 75c14-16 9-35-11-42-1-1-1 0-4-1 0 0-28-1-37 0-10 1-19 5-29 6-6 2-9 4-10 11-4 41 3 80 9 119 4 21 9 41 13 62-3-2-5-5-6-8-3-6-6-13-8-20-2-7-2-17-6-20-6-4-13 5-21 5 0 0 0 0-1-1 2-3 3-6 6-8 8-9 9-17 4-28-8-17-14-35-22-53-3-6-2-9 4-13 16-8 18-13 15-31 0-5-3-7-8-8-20-4-39-4-59-2-8 1-11 5-13 11-13 40-23 81-31 123 0 3-1 6-1 8-11 73-3 137-3 137 2 10 6 20 14 28 14 14 32 23 50 30 6 2 8 0 9-5 0-7-3-16 6-20 2 0 1-2-1-3-8-7-5-11 4-13 3-1 6-2 8-5-9 1-17 2-25 4-7 1-9-2-7-8 4-11 10-20 19-28 4-3 8-5 13-4 20 4 30 20 24 40-1 1-2 2 0 5 1 0 2 0 3 0 12-8 23-1 34 4 4 2 7 5 4 9-5 7-2 13 1 19 5 14 2 18-13 17-6 0-12-1-18-2-14-3-27-2-41 4-9 4-8 9-3 15 2 2 5 5 8 6 6 2 8 5 10 11 5 20 15 38 30 53 0 0 5 3 15-2 28-13 53-30 75-52 9-10 18-20 25-32-7-5-14-7-18-14 1-1 3-1 4 0 32 19 60 3 72-28 13-33 12-65-5-97-12-22-28-43-45-61-4-6-7-10-5-16 8-25 4-47-14-66-5-6-9-13-14-18-8-6-7-11 0-18z m50 69c-5-2-13 0-15-6-6-20-19-34-33-48-2-2-4-4-2-7 5-8 12-14 12-25 0-3 4-2 7-2 13 0 15 2 19 15 2 6 4 12 6 18 1 4 1 9-3 12-7 7-4 12 2 17 4 2 6 6 9 9 4 4 6 7 3 12-1 3-1 6-5 5z m126-36c-4 13-10 25-18 35-13 16-22 33-13 54 2 5 2 10 2 15 2 35-14 51-48 51-7 0-10-2-13-9-13-23-26-48-48-65-2-1-2-3-2-5 2-12 2-24 1-36 5 1 10 2 13 3 5 2 7 1 9-4 12-23 23-45 35-68 2-5 2-8-4-9-8-2-8-9-8-14 1-7 8-6 12-7 16 0 31 1 47 0 17-1 30 1 35 17 4 22 0 42 0 42z m-298 261c8 3 13 0 19-5 5-5 10-6 15 0 5 3 9 6 13 9 2 2 4 3 2 6-1 2-3 2-5 2-21-2-42-4-62 4-2-5 1-6 2-8 1-10 7-13 16-8z"/>
<glyph glyph-name="tod" unicode="&#57;" d="M185 32c-12 2-20 3-28 5-73 19-100 94-55 155 29 38 68 61 111 80 25 12 51 21 73 39 34 27 36 70 5 92 9-51-5-73-55-88-25-7-51-12-68-34-8-11-18-7-27-2-9 6-12 12-9 24 18 51 43 97 83 134 10 9 19 18 22 31 1 5 2 11 7 12 5 1 9-4 10-8 5-15 16-15 30-16 85-4 152-83 148-172-4-99-56-150-160-157-29-2-57-8-83-24-33-21-35-42-4-71z"/>
<glyph glyph-name="seahorse" unicode="&#33;" d="M474 218c-7-15-13-29-18-43-4-14-8-29-12-44-27 1-55 4-83 9-4 11-7 21-11 31-15 33-45 49-81 44-5 0-9-1-14-2 1-6 2-12 4-17 13 2 27 4 40 0-2-6-4-11-5-16-3-16 1-30 11-43 10-12 21-24 30-36 16-20 26-42 33-66 1-1 1-2 1-3l-221 0c-2 15-5 29-7 44-4 28-6 56-6 84 1 35 5 68 17 101 20 53 57 90 112 106 16 5 32 7 48 9 1 1 3-1 4-2 23-25 45-51 68-77 26-28 55-53 86-76 1-1 3-2 4-3z m-168 90c1 13-10 24-22 24-14 1-25-9-25-23-1-12 10-24 22-24 14 0 25 9 25 23z m-106 49c-13-13-25-26-38-38-26 23-53 46-80 69 18 29 41 52 71 69 16-34 32-67 47-100z m-31 107c20 12 68 19 92 15-1-7-2-15-3-22-4-25-8-49-12-74 0-2-2-4-4-5-9-4-17-8-26-12-16 32-32 65-47 98z m96-77c4 30 9 59 14 90 38-7 72-22 104-42-1-1-2-2-3-2-19-12-38-24-57-36-4-2-8-2-12-3-15-2-28-5-43-7-1 0-2 0-3 0z m-131-122c-28 10-56 20-84 30-1 1-3 3-3 4 5 25 13 49 25 72 0 1 1 1 1 1 27-22 53-45 80-68-7-13-13-25-19-39z m-5-17c-4-16-7-32-10-50-26 5-53 10-81 16l4 65c30-11 59-20 87-31z m-90-52c28-6 53-11 78-15l0-37c-1-1-3-1-4-1-21 1-42 1-64 2-1 0-3 1-4 2-2 16-4 32-6 49z m79-70c1-14 2-27 3-40-7-2-14-2-21-3-11-1-23-2-34-4-5 0-7 1-8 5-3 14-6 28-10 42z m6-58c2-12 4-23 6-36l-5 0c-15 0-31 1-47 0-3 0-4 1-5 4-3 9-6 17-8 25 19 2 39 5 59 7z"/>
<glyph glyph-name="jellyfish" unicode="&#36;" d="M411 315c-3 29-17 51-43 65-12 7-18 17-23 30-6 13-10 28-17 42-8 13-16 25-33 27-27 4-51-3-69-25-7-10-15-18-23-26-3-4-6-5-12-4-28 7-56-14-56-44 0-7-2-10-8-13-9-6-16-13-22-23-10-17-3-50 24-54 19-4 40-5 60-7 5 0 7-2 8-7 2-24-6-44-19-62-9-11-17-23-22-35-7-13-8-26-1-40 4-7 5-15 1-22-4-9-8-18-11-26-5-11-9-21-11-33-1-9 3-20 11-22 9-3 14 4 18 11 1 1 2 2 2 4 11 27 17 55 11 84-4 22-3 43 12 61 20 23 34 48 35 79 3-2 3-4 3-6 1-14 1-28-5-42-7-19-14-39-7-59 6-23 3-46-3-69-1-7-2-15 0-22 3-8 11-16 17-15 9 1 11 9 12 16 5 25 2 49-3 73-3 12-4 24-1 36 5 25 13 51 7 78-1 4-1 8-1 13-1 4 0 7 5 6 2 0 5 0 7 0 11 0 11 0 8-11-7-28-8-55 7-81 4-7 7-14 11-22 8-19 10-39 0-60-7-16-14-32-18-49-2-6-2-12-1-19 1-4 3-8 8-10 4-1 7 2 10 5 2 2 3 4 4 6 6 10 10 20 13 31 6 22 12 44 6 67-3 14-8 27-13 41-4 12-9 24-12 38-5 20 3 38 7 56 1 7 7 9 16 7 7-2 4-6 4-10-3-23 1-43 20-59 16-15 19-31 10-51-5-15-11-29-11-44-1-20 0-40 6-60 2-6 6-12 14-11 8 2 8 10 9 17 0 1-1 2-1 2-1 10-3 21-5 30-4 20-5 39 2 58 5 15 10 30 4 47-4 10-11 19-17 28-8 14-16 27-12 44 1 6 3 9 10 9 11-1 22-1 33 0 8 0 16 0 24 1 12 1 22 17 21 31z m-159 127c31 0 56-25 56-56 1-31-25-57-56-56-32 0-56 23-56 56 0 32 24 56 56 56z m-71-27c10 0 12-2 9-12-4-15-3-30 4-44 4-10 3-13-9-14-1 0-3 0-4 0-19 0-35 16-35 35 1 19 17 35 35 35z m70-64c17 0 30 13 30 30 1 17-12 31-30 31-17 0-30-13-30-30 0-17 13-31 30-31z m-4 44c1 6 7 12 14 11 6 0 11-7 10-14 0-6-6-11-12-10-7 0-13 7-12 13z m-72-27c6 0 9 3 9 9 0 5-3 8-9 8-5 0-8-3-8-8-1-6 3-9 8-9z"/>
<glyph glyph-name="lion" unicode="&#40;" d="M456 273c-7 33-24 59-55 76-14 8-30 13-46 19-19 6-38 12-54 23-23 16-37 37-43 63 0 3 0 6-2 9-1-1-1-1-1-1 0-1 0-3-1-4-5-33-23-57-52-72-13-8-28-13-43-18-17-6-34-11-50-20-24-14-41-34-50-61-2-6-2-13-4-20l0-5c1 0 1 0 2 1 13 21 31 37 52 49 15 9 32 15 49 22 4 2 8 4 12 6 0-8-1-7 6-5 0 0 1 0 1 0 3 1 3 2 1 4-2 3-4 4-5 7 2 0 4 0 6 0 2 0 4 0 6 0 2-1 3 0 2 3-1 2-2 4-3 7 2 0 4 0 6 0 8 1 8 1 7 9 0 5 0 5 4 3l4-1c2-1 3-1 4 2 1 3 3 6 6 10 4 5 4 5 9 1 1-1 2-2 3-3 2-1 3-1 4 1 1 4 3 8 5 11 2-2 3-4 4-6 4-5 8-9 13-13 2-1 4-1 5 0 6 4 10 8 14 13 1 2 2 4 4 6 2-3 4-7 5-11 1-2 2-2 4-1 2 2 3 3 5 4 2 2 4 2 5-1 3-3 6-7 8-11 1-3 2-3 4-2 2 1 4 1 6 2 1 0 2 0 2-2 0-2-1-4-1-6-1-3 0-5 3-5 4 1 7 0 11 0-1-3-2-5-3-7-1-3 0-4 3-3 3 0 7 0 11 0 0-2-1-3-2-4-1-1-2-2-3-3-1-1-2-1-1-3 0 0 7-3 8-2 2 1 1 3 1 5 0 0 0 0 1 0 3-1 7-3 11-5 17-7 34-13 49-22 21-12 39-28 52-49 1-1 1-1 2-1l0 5c-1 2-1 4-1 6z m-153-94c-1 1-1 3-3 1-3-4-6-8-4-15 5-15 9-31 11-47 3-22 4-44 4-66 0-6 0-13-1-20l1 0c12 14 19 29 21 47 2 20 1 39-7 58-6 15-14 28-22 42z m-94 0l-12-21c-14-24-21-50-17-79 2-18 9-34 21-47l2 0c-1 1-1 2-1 3-2 26-1 53 2 79 2 17 6 33 11 49 2 6 1 11-2 15-2 3-3 4-4 1z m83 264c6 12 15 22 25 32 1 1 4 3 5 5l-4 0c-2-1-4-1-6-2-18-5-34-18-32-42 1-5 2-11 4-16 2 9 4 16 8 23z m-98 33c8-9 16-16 22-26 6-9 10-18 11-29 2 0 2 1 2 1 3 11 4 21 0 32-5 13-16 21-30 24-1 1-3 1-5 2l-4 0c1-2 3-3 4-4z m199-239c-15 14-31 27-46 39-2 3-3 2-4-1-1-3-2-6-4-9-2-4-1-6 2-8 13-11 25-22 34-36 15-22 23-46 22-72 0 0 0-1-1-1-1 2-1 4-1 7-5 30-18 57-39 79-6 7-13 12-21 17-2 2-4 2-6-2-2-3-3-7-5-11-2-2-1-5 1-7 4-5 8-10 13-15 30-33 44-71 45-115 1-5 0-10 0-15 3 1 4 2 4 3 5 8 10 17 14 26 11 23 17 48 14 74-2 18-9 34-22 47z m-206-5c2 2 3 5 1 8-1 2-2 5-4 8-3 7-4 7-10 2l-1 0c-29-22-47-51-54-86-1-5-2-10-3-15-1 10-1 20 2 30 4 22 16 41 31 58 7 8 14 15 23 21 2 2 3 4 1 7-1 3-3 6-4 10-1 3-2 4-5 1-12-10-25-21-37-31-7-7-13-14-18-22-13-21-15-44-11-68 4-21 13-41 23-59 2-3 4-6 6-9 1 1 0 3 1 4 1 13 1 27 4 41 5 27 15 51 32 73 8 10 16 18 23 27z m223 61c-18 14-38 23-57 34-3 1-3 0-3-2-2-6-5-11-8-16-3-2-3-4-2-7 1-4 3-7 6-10 3-4 8-8 12-11 17-14 35-28 50-44 15-18 27-37 31-60 0-1 0-2 1-2 2 0 2 1 2 2 3 13 5 26 5 40 0 5-1 10-1 16-3 26-15 46-36 60z m-288-38c13 11 27 21 40 33 5 3 8 8 10 14 1 2 1 4 0 6-5 5-8 11-10 18-1 2-2 2-3 1-3-2-6-3-9-5-17-9-34-18-50-30-12-9-23-21-28-36-5-12-7-26-7-39 0-13 2-27 5-40 0-1 0-2 2-2 1 0 1 1 1 2 1 5 2 9 3 13 9 27 26 47 46 65z m200-32c-1 1-1 2-3 2-1-1-1-2-1-3 0-10-4-18-13-23-3-2-2-3-1-5 13-19 26-38 34-60 9-24 14-50 9-76 0-3-1-6-1-10 1 1 1 1 1 2 1 0 2 1 2 1 5 7 8 14 10 21 8 26 7 52 2 78-6 28-20 52-39 73z m-114-29c1 2 1 4-1 5-1 0-2 1-2 2-6 4-10 9-11 18 0 2 0 4-1 6-3-2-5-4-6-6-14-16-25-33-31-53-8-20-10-41-9-63 0-15 4-30 11-44 2-4 4-7 8-11 0 2 0 3 0 5-2 5-3 11-3 17-2 22 3 43 11 63 8 22 20 42 34 61z m82 4c-9-4-18-1-25 5-5 3-7 8-7 15 0 5 2 8 7 10 7 3 14 6 20 10 4 2 5 7 6 11-2 1-2 0-3-1-4-2-8-4-13-3-2 0-5-1-7-2-8-3-16-3-24 0-2 1-5 2-8 2-5-1-8 0-12 3 0 1-1 2-2 2-1-2-1-3 0-4 1-5 4-8 8-10 8-4 14-6 21-10 2-1 3-2 3-5 0-3 0-6 0-9 0-2 0-4-2-5-3-2-5-5-8-7-6-4-13-5-20-2-5 2-7 0-7-6 1-2 1-4 2-6 3-5 4-5 8-1 17 16 40 16 57 0 5-4 7-4 9 2 2 3 2 6 1 9 0 2-1 3-4 2z m-26-37c-5 0-11-1-16 0-3 0-4-1-4-4 0-19 1-37 4-55 1-9 4-16 8-25 4 7 6 14 7 20 3 20 4 40 5 60 0 3-1 4-4 4z m-34-48c-2 16-2 31-1 47 0 2 0 3-1 4-1-1-1-2-2-3-4-13-6-26-7-40-2-12-2-25 1-38 3-11 8-21 18-28 1-1 2-2 3-1 1 1 0 2 0 3-6 18-10 37-11 56z m54 51c0-12 0-24-1-35 0-25-4-49-12-72 0-1-1-2 0-3 1-1 2 0 3 1 6 4 11 10 14 17 4 8 6 18 6 27 1 16-1 32-4 48-2 6-3 12-6 17z m-75 167c-2 1-4 4-6 2l-17-10c-2-1-1-2 1-4 2-2 4 0 6 0 2 2 3 1 4-1 0-2 1-4 3-5 4-2 9-4 15-3 3 0 4-2 3-5 0-2-1-3 0-5 6 2 6 2 5-6 0-7-2-14-4-21-2-4-3-8-4-13 1 1 2 3 3 4 2 7 5 14 7 21 4 10 6 21 4 32-1 5-3 8-8 9-2 1-6 0-8 4-1 1-2-1-2-1-2-1-4-2-5-4l-1 1c1 1 2 2 3 3 1 1 2 1 1 2z m91-1c-3-4-7-3-10-5-2-1-4-2-5-4-2-5-3-10-2-14 0-11 2-20 6-29 3-6 5-12 8-19 0 4-1 6-2 9-3 10-6 19-6 30 0 3 0 4 4 3 1-1 2-2 2 1-1 7-1 7 7 8 1 0 2 0 2 0 4 1 10 2 11 6 2 5 3 5 7 3 0-1 1-1 1-1 2 0 4 1 4 3 1 1-1 2-2 2-4 3-10 6-15 9-1 1-6 1-7-1-1-2 2-2 3-4 0 0 1 0 1-2-2 1-3 3-5 4-1 0-2 1-2 1z m-100-91c-1 1-2 2-2 1-2 0-1-2 0-2 1-3 2-6 4-9 5-6 12-10 20-9 7 1 14 2 21 1 1 0 2-1 2 0 1 1 0 2-1 2-5 3-10 4-15 3-8-1-17-2-24 6-2 2-4 5-5 7z m28-9c-10 1-19 7-26 13 1-10 15-17 26-13z m65-17c-5-1-10 0-15 1-1 0-2 1-2-1-1-1 0-1 1-2 4-1 7-3 10-3 4 0 8 2 11 3 0 1 1 1 1 3-1 0-2 0-2 0-2 0-3-1-4-1z m-212 136c24 16 51 25 80 30 18 3 35 10 49 21 6 4 11 10 15 17-1-1-1-1-2-1 0 0-1 0-1-1-10-7-21-11-33-12-16-1-32 1-48 1-14 0-26-2-37-10-15-11-22-26-26-43 0-1-1-2 0-3 1-1 2 0 3 1z m248 54c-15 0-28 3-40 13 0 0-1 0-2 1 2-5 9-13 15-17 14-12 31-18 50-21 24-5 47-12 69-24 4-2 7-4 11-7 1 0 1-1 2 0 1 0 0 1 0 2-1 3-1 7-2 10-9 29-28 43-57 44-16 0-30-1-46-1z m-200 8c13 4 27 6 41 3 15-4 30-3 45 3 1 1 2 1 2 2-5 1-11 2-16 3-10 3-18 8-27 12-5 3-10 4-16 3-10-1-18-5-26-11-7-6-13-13-19-20 0 0 0-1 0-2 5 3 10 5 16 7z m205 21c-7-3-13-7-21-9-6-2-12-3-18-4 0-2 2-2 3-2 15-7 30-7 46-3 3 1 7 2 11 2 13 0 25-4 37-9 2 0 4-2 7-2 0 2-1 3-2 3-5 7-11 13-18 18-13 11-29 15-45 6z m-153 7c10-3 20-9 30-14-5 11-12 20-23 27-12 7-32 2-41-10 12 2 22 1 34-3z m120-14c20 11 39 21 64 17-6 5-11 9-17 12-5 1-10 2-15 1-17-3-25-16-32-30z"/>
<glyph glyph-name="monkey" unicode="&#45;" d="M225 233c9-5 24-4 31 3 10-8 19-8 30-4 3 1 6 4 5 7-1 2-3 5-5 6-11 4-21 4-30-3-9 7-20 7-30 3-2-1-4-4-4-6-1-2 2-5 3-6z m91 32c14-2 27 11 27 25-1 16-11 26-27 26-14 0-25-10-26-26-1-14 13-27 26-25z m69-71c-7 4-14 3-19-1-12-9-26-15-39-20-24-8-48-11-73-11-4 0-7 0-11 1-7 0-15 0-22 1-15 4-29 7-43 12-11 4-20 10-31 17-4 2-9 4-15 3-7-2-11-6-13-12-2-6-1-13 5-17 7-6 14-11 21-15 18-10 38-16 59-20 17-3 35-5 52-6 7 1 15 1 22 2 7 0 13 1 19 2 12 2 23 4 34 7 20 6 38 14 54 26 5 4 9 8 9 15 0 7-3 12-9 16z m88 154c-15 29-45 41-75 36-31 59-80 88-146 87-62-1-108-31-138-86-15 1-31 0-45-8-15-7-26-19-32-35-1-5-3-10-4-15-1-5-2-12 0-22 1-7 4-13 6-19 7-14 16-24 30-31 4-2 8-4 12-6-3-6-6-13-8-21-5-14-7-30-6-45 2-27 12-51 29-72 14-17 30-31 49-42 17-10 35-17 54-21 7-2 15-3 22-4 10-2 54-7 114 10 9 4 18 8 26 13 12 6 24 14 34 23 11 9 20 20 28 32 11 16 19 34 21 54 3 25-1 49-12 71 0 1 0 1-1 2 23 8 39 23 45 45 6 18 5 37-3 54z m-372-66c-10 1-19 4-26 12-9 13-10 29-1 42 6 9 20 15 29 14-1-9-2-18-2-26 1-12 3-24 4-36 1-4 0-6-4-6z m308-103c-3-15-9-29-18-41-11-15-24-27-40-37-19-11-39-18-61-22-15-3-30-4-45-3-28 2-54 8-79 22-16 10-30 21-42 37-9 11-15 24-19 38-5 20-4 40 5 59 6 15 14 28 25 38 5 5 6 9 5 15-4 13-4 26-3 40 2 24 9 47 25 65 9 11 20 20 34 24 12 3 23 0 34-5 14-8 22-20 25-36 0-3 0-6 0-9l2 0c0 9 2 18 6 26 8 14 21 22 37 25 17 3 31-5 43-16 16-15 26-34 30-56 3-15 4-30 2-45-1-6-3-12-4-18 0-2 0-5 2-6 13-11 22-24 29-39 5-12 8-25 8-37 1-7 0-13-1-19z m7 104c-2-1-6-2-8 1-1 1-1 2-1 3 1 9 3 19 4 28 0 12-1 23-1 35 13 1 29-8 33-25 6-19-6-39-27-42z m-220-18c14-2 26 11 26 24 0 17-12 27-26 27-15 0-26-11-26-26-1-14 12-27 26-25z m40-224l1 0c0 0-1 0-1 0z"/>
<glyph glyph-name="octopus" unicode="&#58;" d="M480 183c-3 14-12 23-25 28-13 4-25 2-36-7-7-6-12-14-16-22-4-8-8-17-13-25-6-11-18-16-28-14-10 3-16 12-17 22-2 14-4 28-6 42-1 5 2 9 7 11 8 2 14 6 20 11 12 11 17 25 25 39 6 13 15 22 28 28 10 5 18 4 25-3 8-7 11-15 7-24-1-4-3-7-5-9 2 3 3 6 3 9 0 9-7 15-14 15-8 0-15-7-15-15 0-8 6-15 15-15 5 0 10 1 15 6 8 8 9 18 5 27-4 11-12 19-24 21-12 1-22-3-31-10-9-6-17-14-24-23-12-13-25-24-45-29 4 6 9 8 12 13 10 13 12 30 13 46 2 14 3 28 13 39 10 11 26 9 32-4-2 3-6 5-10 5-8 0-15-7-15-14 0-8 7-15 15-15 7 0 15 7 15 15 0 0-1 1-1 2-2 18-16 28-32 23-7-3-13-9-17-16-7-10-10-22-12-33-3-11-7-22-15-31-6-5-12-8-21-7 9 21 19 40 25 62 10 38 4 71-25 99-15 14-32 23-52 23-20 0-37-9-52-23-29-28-35-61-25-99 6-22 15-41 25-62-9-1-15 2-21 7-8 9-12 20-15 31-2 11-5 23-12 33-4 7-10 13-17 16-16 5-30-5-32-23-1-1-1-2-1-2 0-8 7-15 15-15 9 0 15 7 15 15 0 7-7 14-15 14-4 0-8-1-10-5 6 13 22 15 32 4 10-11 11-25 13-39 1-16 3-33 13-46 3-5 8-7 11-13-19 5-33 16-44 29-7 9-15 17-24 23-9 7-19 11-31 10-12-2-20-10-24-21-4-9-3-19 5-27 5-5 10-6 15-6 9 0 15 7 15 15 0 9-6 15-15 15-8 0-14-7-14-15 0-3 1-6 3-9-2 2-4 5-5 9-4 9-1 17 6 24 8 7 16 8 26 3 13-6 22-15 28-28 8-14 13-28 24-39 7-5 13-9 21-11 5-2 8-6 7-11-2-14-4-28-6-42-2-10-7-19-17-22-10-2-22 3-28 14-5 8-9 17-13 25-5 8-9 16-16 22-11 9-23 11-36 7-13-5-22-14-25-28-3-19 16-37 33-31 6 1 10 7 10 14 0 8-6 14-14 14-8 0-15-6-15-14 0-3 1-5 2-7-11 8-12 22-3 32 10 12 26 15 37 6 6-6 10-12 13-19 4-11 7-22 13-32 18-31 58-31 77-1 4 7 7 15 9 23 1 4 3 8 4 12 3-2 2-5 1-7-2-22 0-44 5-66 6-23-17-45-40-37-8 2-15 11-16 20 2-6 7-10 13-10 8 0 15 7 15 15 0 1 0 1 0 2-1 7-8 13-15 13-2 0-3-1-5-1-10-4-15-14-13-25 4-18 22-28 42-24 20 6 34 22 36 45 2 15-1 29 2 43 0 4 1 7 1 11 5 19 14 27 32 27 17 0 27-8 31-27 1-4 1-7 2-11 3-14 0-28 1-43 3-23 17-39 37-45 19-4 37 6 41 24 3 11-3 21-12 25-2 0-4 1-5 1-8 0-14-6-15-13 0-1 0-1 0-2 0-8 7-15 15-15 5 0 11 4 13 10-2-9-8-18-17-20-22-8-45 14-40 37 5 22 8 44 5 66 0 2-1 5 2 7 1-4 2-8 3-12 2-8 6-16 10-23 19-30 59-30 76 1 6 10 9 21 14 32 3 7 6 13 13 19 11 9 27 6 37-6 9-10 7-24-4-32 2 2 2 4 2 7 0 8-6 14-14 14-9 0-15-6-15-14 0-7 5-13 11-14l0 0c17-6 36 12 33 31z m-266 127c-5 5-8 11-11 19 8-8 16-14 26-16-5-8-9-9-15-3z m84 0c-5-6-10-5-14 3 9 2 17 8 25 16-3-8-6-14-11-19z"/>
<glyph glyph-name="owl" unicode="&#59;" d="M144 132c-40 32-54 72-51 119 2 29 12 55 36 74 5 5 3 9 1 13-15 24-13 48-1 72 10 21 12 44 12 69 77-58 153-58 231 1-4-35 8-63 19-91 6-18 0-34-8-49-2-5-7-9 0-14 41-32 46-100 23-147-8-18-20-33-38-47 11 35 19 68 8 102-1-20-1-40-7-60-2-7-3-13-6-18-12-22-25-43-20-70 2-15-9-26-26-28-21-3-44-4-58-25-3-3-6 0-8 3-10 13-26 17-42 20-36 4-45 15-40 52 0 5 3 9-1 13-25 34-34 73-31 115-13-35-4-68 7-104z m169 194c24 0 43 18 43 42 1 24-19 43-42 44-23 0-44-20-44-43 0-24 19-43 43-43z m-157 43c0-24 19-43 42-43 24 0 44 19 44 43 0 22-20 43-43 43-24 0-43-19-43-43z m99-30c-8 0-15-5-14-14 0-10 6-18 15-23 3-2 17 17 16 24-1 8-7 13-17 13z m39-87c0-13 8-19 18-20 12-1 20 6 22 23-14-16-26-15-40-3z m-115-1c2-13 9-20 22-19 10 1 17 7 17 21-14-14-26-13-39-2z m65-41c-15-16-28-15-42-2 2-14 8-21 20-21 11-1 18 7 22 23z m26-2c1-15 9-21 20-21 12 0 18 7 20 22-14-15-26-15-40-1z m4 43c-12-12-24-10-37 2 2-14 9-21 19-21 11 0 17 8 18 19z m42-124c7 5 8 11 6 17 0 4-3 11-7 10-8-2-2-8-1-11 0-5 1-10 2-16z m-120 0c1 7 2 11 2 15 1 4 6 10 0 12-5 1-7-6-8-10-3-6 0-11 6-17z m107 1c6 7 5 14 2 20 0 4-1 7-5 6-5-1-4-4-3-8 2-5 4-11 6-18z m-120 23c-13-11-12-19 0-28-3 12-3 12 0 28z m151 219c1-11-8-20-20-21-10 0-20 9-20 20 0 12 8 19 19 20 11 1 21-8 21-19z m-136 19c11 1 20-8 20-19 0-12-10-21-20-21-12 1-19 8-20 20-1 10 8 20 20 20z"/>
<glyph glyph-name="panda" unicode="&#60;" d="M305 191c-7 4-9-3-11-8-5-10-16-14-25-8-6 4-8 7-2 12 6 5 12 10 18 16 5 4 4 8-3 11-9 4-18 6-28 6-9 0-18-2-27-6-8-3-9-7-3-12 5-5 10-11 16-15 7-5 4-9-1-12-10-6-20-2-26 9-2 5-4 10-10 7-6-2-5-7-3-12 5-17 22-25 40-19 10 3 19 3 28-1 17-5 33 2 39 18 2 5 5 11-2 14z m-63 83c0 36-24 57-51 47-25-11-41-42-35-70 7-28 32-39 58-24 18 12 27 30 28 47z m52 47c-16-6-24-20-25-37-1-16 4-30 13-42 11-17 31-25 46-20 17 5 27 21 27 44 0 14-5 28-16 40-12 13-27 21-45 15z m186 43c-2 15-6 30-17 43-22 24-58 31-93 17-18-8-35-8-54-1-41 17-82 16-122 1-19-7-36-7-55 0-29 11-58 10-83-10-26-20-31-58-15-91 7-13 15-25 27-33 6-5 8-11 7-19-6-91 51-169 141-190 98-24 203 49 215 149 0 2 1 4 1 6 2 14-2 30 2 43 4 12 20 19 28 31 9 14 16 27 18 44 0 2 0 7 0 10z m-72-118c-2-79-76-147-156-145-88 2-155 73-153 161 2 83 75 152 157 149 91-3 155-73 152-165z"/>
<glyph glyph-name="panther" unicode="&#62;" d="M270 46c4 23 5 44 3 65-1 28-6 56-26 79-3 4-7 7-11 11 39-3 75-17 111-29-43 30-92 46-146 51 14 8 23 18 30 30 1 2 5 2 8 3 31 12 55 32 64 66 1 2 1 4 1 6 0 1 0 3 0 5-7-19-18-34-34-46-7-6-16-11-25-14-5-2-8-2-8 5-1 14-8 25-20 35 2-7 5-11 6-16 6-20 3-37-13-51-14-13-28-25-42-38-10-9-10-16 0-26 1-1 3-2 5-4-8 0-14 2-21 5-19 7-37 17-50 33-3 3-5 6-4 10 1 4 5 2 8 3 24 4 45 13 61 30 12 12 12 25 1 39-5 7-11 12-16 18 13-5 23-18 35-26-4 10-11 16-19 22-19 16-39 29-65 31-15 1-28-3-40-12-4-5-7-3-9 2 0 2-1 4 0 5 3 12-4 17-12 21-7 4-10 9-10 17 0 2-1 6 3 5 3 0 5-1 6-5 0-4 1-9 7-12 0 2-1 4-1 6 0 6 1 9 8 8 5-2 11-2 17-2-1 2-3 2-5 3-9 4-18 9-27 14-8 5-9 9 1 13 10 3 18 10 30 9 5 0 11 3 16 5 18 9 37 15 51 31 13 16 31 16 49 13 32-4 61-12 90-24 5-2 9-2 14-1 28 7 56 4 83-6 4-2 7-4 12-7 4-2 4-5 0-9-11-11-25-19-41-21 0-4 3-4 5-6 37-24 72-50 104-81 6-6 12-13 19-19 7-8 8-17 6-27-7-33-25-60-46-85-45-53-100-93-159-130-1 0-2-1-4-2z m-24 351c-23 6-48 6-72 3-13-1-26-7-39-1-8 3-13-1-18-6 19-1 35-8 47-23 12-15 14-33 13-51 4 13 3 26 2 39 19-4 35-12 51-20-14 11-29 19-46 24-6 2-9 6-11 11-1 3-1 4 2 4 9 0 18 0 26-1 13-1 26-4 39-7-21 8-43 14-66 13-7 0-11 3-15 8 7 3 14 5 21 6 22 3 44 3 66 1z m56 5c10 9 20 14 31 17 11 4 22 5 34 6-27 7-66-7-78-28 16-4 36-2 46 4-11-2-22-3-33 1z m-112 24c-11-3-22 0-32 2-9 1-17-7-18-15 7 2 13 5 18 8 1 1 3 3 4 1 2-1 1-2 1-4-1-3-2-6-3-10 13 3 22 8 30 18z m-72-8c-19-9-39-18-62-20 4-3 7-6 12-4 18 5 34 13 50 24z m30-111c-13 12-26 20-42 21-8 1-10-1-11-9-1-9 2-17 7-25-10 1-29 21-31 31 0 5 4 6 7 7 18 8 43 4 58-9 5-5 9-9 12-16z m-33-29c8-29 21-35 53-9-3-6-7-10-11-14-10-8-22-12-34-16-6-2-9 1-10 6-3 11-3 22 2 33z"/>
<glyph glyph-name="footprint" unicode="&#91;" d="M365 178c-21 15-34 33-40 58-8 32-40 54-73 54-34-1-63-23-71-56-6-22-15-41-37-54-25-14-32-40-33-59 0-50 20-77 56-83 19-2 37 3 54 11 25 10 50 11 75-2 4-2 8-4 12-6 21-8 40-6 59 8 36 26 55 90-2 129z m-16 141c32 36 42 78 25 124-14 37-49 43-77 16-23-24-32-53-33-86 0-14 2-27 7-39 16-38 51-45 78-15z m-183-4c26-24 57-18 73 14 6 14 9 29 8 44 0 34-10 65-36 88-25 24-56 18-71-14-6-10-8-22-9-34-2-37 7-71 35-98z m312 12c-5 24-25 37-49 32-42-8-84-63-83-109 0-3 0-5 1-8 4-35 26-51 58-41 47 15 84 79 73 126z m-313-81c0 42-19 76-53 101-12 9-26 15-42 13-25-3-39-23-38-60 5-38 24-74 66-95 38-19 67 3 67 41z"/>
<glyph glyph-name="pelican" unicode="&#93;" d="M478 403c0 0 2 4 2 5-2 5-10 6-15 6-26 3-52 5-79 7-49 4-98 9-147 13-5 1-11 3-14 6-17 23-46 33-74 25-26-7-43-26-47-55-3-25-4-50-5-75-1-8-1-17-2-28 30 10 58 5 85-3 27-9 54-16 79-28-4-2-8-2-11-1-20 6-41 12-61 17-16 4-32 9-48 10-51 2-107-53-109-106 0-19 0-37 0-55l0-52c6 4 8 7 11 8 12 5 23 12 35 14 16 2 33 1 50 0 26-2 28-1 27-30 0-3 0-5 0-8 0-11-3-18-16-19-4 0-12-2-13-6 0-1 3-3 3-3l147 0c-3 18-12 24-33 21-19-3-38-5-57-8-9-2-14 1-13 11 0 6 0 12 1 19 0 15 1 16 16 16 30 0 58 0 87-1 24 0 45 8 62 26 23 24 46 49 71 70 31 26 25 85-25 98-53 14-106 33-158 50-4 2-7 4-10 6l1 3c4-1 8-1 11-2 57-17 114-33 171-49 21-7 32-1 42 18 10 16 19 33 28 50 3 4 4 8 6 15-81 7-161 10-240 18l0 6z m-283 9c-6 0-10 5-10 10 0 6 4 10 10 10 5 0 10-4 10-10 0-5-5-10-10-10z"/>
<glyph glyph-name="penguin" unicode="&#94;" d="M354 338c-12 10-24 20-36 31-6 6-11 12-16 19-7 11-2 20 10 22 8 1 16 1 24 2 14 0 28 1 41 1-2 15-8 20-28 22-22 2-39 8-52 28-11 17-31 20-50 14-18-5-27-19-29-37-1-8-1-17 0-25 1-16-4-29-15-40-14-13-29-25-43-38-7-7-16-16-19-26-8-20-8-41-3-62 2-5 5-9 7-15l3-6c2 7 5 21 7 27 5 14 11 27 18 39 1 4 9 9 13 6 4-2 2-10 2-15 0-1-1-3-2-5-7-21-15-42-21-63-16-52-13-101 24-144 6-7 4-14-5-18-4-3-10-4-15-7-6-3-12-6-17-10l-9-4c15 0 41 0 57 0 8 0 13 2 18 8 4 5 10 9 16 10 12 2 24 2 36 0 8-1 15-6 22-11 4-2 8-8 12-8 17-1 38-1 54-1l9 0-11 6c-8 4-16 9-25 12-17 6-19 12-7 26 23 28 31 61 29 97-2 33-10 65-22 95-2 5-4 11-5 16 0 4-1 11 3 13 4 3 11-1 14-4 5-5 9-12 12-19 3-10 4-22 7-32 1-3 3-11 4-14 3 2 7 11 7 13 2 20 4 40 4 60-1 15-11 27-23 37z m-76 119c5 0 9-4 9-9 0-5-4-9-9-9-6 0-9 4-9 9 0 5 3 9 9 9z m43-333c-6-27-26-39-52-41-12 0-25 1-37 4-28 6-44 28-47 61-1 5-1 10-1 15 1 24 7 45 13 66 9 29 18 58 27 86 3 9 7 17 10 25 5 10 13 16 25 16 10-1 19-7 23-17 10-32 21-65 30-97 6-20 12-42 13-63 2-18-1-37-4-55z"/>
<glyph glyph-name="pig" unicode="&#95;" d="M480 392c-2 3-4 2-6 2-3 0-5-1-7-1-14 0-27 4-39 8-15 6-31 7-46 0-12-5-21-15-28-26-1-3-3-3-6-2-11 4-22 8-34 12-25 6-50 10-75 7-24-2-46-9-69-17-3-1-7-3-9-3-3 1-4 5-7 8-2 3-5 6-8 9-8 9-19 15-32 16-11 1-22-1-32-4-14-5-29-9-45-7-5 0-6-2-4-7 8-13 15-27 21-40 3-7 5-14 9-20 9-14 20-23 38-20 3 0 5 0 9 0-2-3-4-6-5-9-9-27-9-55-2-82 11-47 39-80 84-98 32-11 64-14 97-9 26 3 49 11 71 25 49 31 66 99 57 146-2 9-5 18-10 27 3 0 5 0 6 0 5 0 10-1 15 0 15 3 23 14 29 26 3 6 6 13 9 19 5 12 11 23 17 35 1 1 3 3 2 5z m-321-102c-1 0-1 1-2 2-2 2-3 4-6 1-2-1-4 0-6 1-1 2-1 3-1 6 10 27 39 35 62 15 2-2 2-3 2-5-2-3-4-4-6-3-4 1-3-3-3-4-5-18-25-24-40-13z m116-128c-6-2-12-2-18-2-10 0-19 1-28 4-20 7-32 24-33 46-1 29 18 51 47 54 14 2 26 1 39-3 23-8 35-28 34-52-2-25-16-42-41-47z m91 132c-1-1-4-2-6 0-2 1-2 1-3 0-7-8-15-11-26-9-10 3-17 10-19 21 0 0 0 1 0 1-1 0-2 0-4 0-2 0-3 1-4 3-1 2 0 3 2 5 18 16 42 16 56-5 2-3 4-6 5-10 1-2 2-4-1-6z m-140-62c-6-1-9-5-9-12 0-7 1-14 2-20 1-6 6-10 11-10 6 1 10 6 9 12 0 6-1 13-2 19 0 7-5 11-11 11z m60-1c-6 1-11-3-11-10-1-6-2-13-2-19-1-6 2-11 8-12 6-1 11 4 12 10 1 6 1 13 2 20 0 6-3 11-9 11z m-99 83c1-9-2-15-9-17-8-2-13 2-16 12-5-5-5-6-2-11 5-6 13-8 19-7 8 2 13 9 14 16 1 5 0 6-6 7z m163-5c-4-10-8-14-16-12-3 1-5 3-7 5-3 4-3 8-2 13-7-2-7-3-6-8 1-8 7-14 14-16 7-1 14 1 19 7 3 5 3 6-2 11z"/>
<glyph glyph-name="ferocious-pig" unicode="&#96;" d="M267 436c9-2 12-10 17-15 4-4 4-3 16-3 10 0 15 2 23-6 5-6 13-11 20-17 4-5 11-4 15 2 7 8 12 16 18 24 9 12 18 22 33 28 7 3 12 8 16 15 2 5 3 13 10 12 8-1 9-9 11-15 5-21 9-42 13-63 4-21 6-42 1-64-5-18-16-33-26-49-4-6-11-7-17-6-5 1-9 2-14 3-12 3-16 0-17-13 0-17 2-33 9-49 13-28 21-57 18-88-4-41-26-69-63-84-40-16-81-18-123-15-17 1-33 3-49 8-65 18-96 75-78 140 8 25 19 49 21 75 1 6 1 12 0 18-2 8-6 10-15 8-36-8-55 4-57 42 0 13 1 26 4 38 8 28 7 55 3 82-2 12 1 22 9 32 4 5 10 6 13-1 9-18 24-31 40-43 11-8 19-19 27-30 10-13 15-12 27-1 6 7 12 18 25 13 1-1 3 0 4 0 7 12 16 4 25 2 2-1 5-3 7-2 3 2 1 6 0 8-1 4-3 9 0 12 5 2 9-1 12-4 5-3 10-7 16-10 2-2 6-4 9-1 4 3-1 6-2 9-1 2-5 7-1 8z m-9-325c7 1 14 1 21 2 13 4 24 10 27 25 6 29-12 57-41 64-25 6-51-12-59-40-5-23 6-44 28-49 8-1 16-1 24-2z m-69 175c-5-1-12 0-11-7 1-11 11-9 19-11 3-1 7-1 6 3-2 8-3 16-14 15z m135 0c-10 0-13-5-13-13-1-4 0-7 5-5 8 2 18 0 19 11 1 6-6 7-11 7z m-80-130c1-6-3-10-10-9-4 0-8 2-7 7 1 5 5 9 11 10 5 0 5-5 6-8z m31 8c5 1 9-4 10-10 1-4-3-7-7-7-6-1-8 3-9 7-1 5 1 10 6 10z"/>
<glyph glyph-name="pigeons" unicode="&#124;" d="M465 208c-1 2-2 4-3 6-8 16-21 20-39 13-10-4-20-11-28-20-5-4-9-9-15-14-2 2-2 4-2 6-7 23-15 45-25 66-13 26-26 49-46 69-6 6-12 13-16 20-17 25-21 53-18 82 0 7 1 13 1 21-21-14-40-29-53-49-18-25-24-54-24-84 0-2 0-5-2-7-12-15-12-33-9-51 7-30 22-57 41-81 6-8 14-16 22-24-2-1-4-2-6-2-7-1-15 0-22 1-39 7-74 23-108 43-21 12-40 26-52 48-1 1-2 3-4 4-3 3-6 3-7-2-2-4-2-9-2-14-1-19 2-38 9-57-4 0-8 0-11 0-10 0-15-5-14-15 1-7 3-13 6-20 7-13 15-25 25-36-14-6-17-12-11-25 5-11 13-19 20-29 2-3 4-3 7 0 21 17 44 29 71 35 35 7 70 1 103-13 25-9 49-18 74-22 19-3 38-1 55 8 18 10 34 22 42 43 6 14 9 29 12 44 3 18 14 28 33 29 3 1 6 1 11 1-9 8-12 17-15 26z m-6-12c-2-2-4-2-6 0-2 2-1 4 0 6 2 1 4 1 5 0 2-2 2-4 1-6z m-128 125c18-24 30-50 42-78 3-10 7-20 11-31 1 3 1 5 1 7-4 25-5 50 0 75 5 28 17 52 41 67 8 6 16 9 26 12-16 6-32 10-48 11-36 2-66-10-86-41-2-3-2-5 1-8 4-4 8-9 12-14z"/>
<glyph glyph-name="rabbit" unicode="&#126;" d="M176 329c18-2 34-8 48-19 12-9 20-21 26-36 24-58 46-118 68-178 2-5 5-7 10-9 16-3 31-7 47-10 13-4 22-13 22-24 1-5 0-7-5-6-35 5-69 10-103 14-5 1-9 5-13 9-34 42-68 83-102 125-5 6-10 9-18 10-37 3-65 20-84 53-11 19-15 40-12 63 1 4 0 5-4 6-7 2-14 3-20 5-2 0-4 1-4 3 1 10 2 20 13 25 23 13 47 27 71 39 40 18 78 13 112-14 36-30 72-60 108-90 4-3 7-3 10 1 2 5 6 7 10 10-5 4-9 7-14 10-50 36-80 85-98 143 0 2-2 4 0 6 2 1 4-1 6-1 72-26 126-71 158-141 2-5 4-7 9-8 25-8 42-24 48-51 5-19 10-38 15-57 1-4 0-6-3-9 0 0-1 0-1 0-20-18-21-19-47-13-27 5-50 0-70-18-5-4-10-7-15-11-6-5-12-8-19-9-6-1-8 1-10 6-12 31-24 62-35 92-5 12-9 23-14 35-14 34-46 54-83 50-3 0-5-1-7-1z m265-99c6 0 12 6 11 12 0 7-6 12-12 12-6-1-12-6-12-12 1-6 6-12 13-12z m-258-118c-11 2-22 3-33 6-11 2-18 14-18 24 0 4 1 5 5 4 9-1 19-2 28-4 8-1 15-2 22 3 3 1 5 0 7-2 5-6 11-13 16-20 2-1 4-3 0-4-9-3-18-5-27-7z"/>
<glyph glyph-name="rhino" unicode="&#57345;" d="M412 206c-2-2-2-3 0-5 7-5 9-13 8-22-2-9-6-18-11-26-1-2-2-5 2-6 2 0 3-1 4-3 2-2 3-5 2-8-1-2-4-1-6-1-9 0-19 0-28 0-10 0-20 1-30 0-5 0-5 2-3 5 3 5 7 8 14 8 3 0 4 2 5 4 3 8 6 15 9 24 0 2 0 3-2 5-31 18-45 46-45 82 0 27 7 52 23 74 5 7 11 13 18 17 6 5 13 6 21 3 22-6 36-22 44-42 14-33 8-64-12-93-4-5-8-11-13-16z m-149 139c-1 2-2 4-4 5-15 10-31 19-48 26-2 1-4 1-6 0-7-4-15-10-22-16 5-3 9-7 13-11 5-6 8-11 9-14-14 12-29 21-44 30-4 1-5 1-7-3-9-12-17-26-24-39-1-3-1-4 1-6 21-17 33-39 39-65 2-7 3-14 4-21 42 17 64 14 87-13 0 0 0 0 0 0 1 2 1 3 2 4 13 41 11 82 0 123z m-131-142c-6-1-11-2-16-3-14-3-25-11-34-22-2-1-3-3-5-1-3 1-1 3-1 5 2 6 6 12 10 18-11-5-20-13-27-23-27 41-32 85-23 132 3-24 10-48 20-70-1 12 0 24 3 37 2-7 7-13 13-18 2-1 3-1 5 1 15 14 29 30 42 46 3 3 2 4-1 5-6 2-12 3-18 2-2 0-4 0-4 2 0 8-2 15-4 22 2 1 2 0 3 0 39-20 62-51 68-94 1-8 1-16 1-24 0-3-1-5-3-7-9-5-19-7-29-8z m-31 51c-5-2-9-6-12-9-5-5-5-6 2-8 2 0 4-3 5 1 0 6 2 10 5 16z m223-24c-3 11-5 23-3 35 2 31 12 59 32 82 2 3 2 4-1 5-6 3-12 6-18 8-2 1-3 0-5-1-6-7-15-10-23-12-13-2-25 0-39 3 2-3 3-6 3-9 14-42 14-84 1-126-2-5-1-6 3-6 17 1 33 5 48 14 3 2 4 3 2 7z m-89-1c-19 8-38 5-56-6-3-1-3-3-2-6 4-14 11-28 23-36 11-8 11-16 7-27 0 0-1 0-1-1 0-3-2-5-5-5-5 0-10-4-12-9-1-3-1-4 3-4 9 0 19 0 28 0 9 0 18 0 26 0 2 0 5-1 6 1 1 3-1 6-3 8 0 1-1 2-3 2-3 2-3 4-1 7 6 12 10 25 11 40 2 17-6 31-21 36z m100-80c8 10 15 19 20 31 1 2 1 4-1 5-9 8-17 17-22 27-1 2-2 3-4 2-7-4-14-7-21-9-3 0-3-2-2-4 2-6 4-12 8-17 1-2 2-3 1-6-3-9-7-17-11-25-2-3-4-5-8-5-7 0-11-5-13-10 0-2 0-3 3-3 18 0 37 0 55 0 3 0 4 1 3 3 0 5-3 9-8 11z m-156-3c-2 2-1 4 1 5 6 4 11 9 17 16 0 1 2 2 0 4-11 9-19 19-25 33-5-19-13-36-25-51-2-3-4-5-8-5-5 0-10-3-13-8-2-4-2-5 3-5 15 0 31 0 46 0 2 0 6-1 7 2 1 2 0 5-2 8 0 0-1 1-1 1z m297 64c-1 4-3 6-7 6-6 0-10 3-12 9-3 9-7 20-10 30-1-4-2-8-3-11-2-3-1-5 0-8 5-5 8-10 12-15 7-9 15-16 24-24-2 5-3 9-4 13z"/>
<glyph glyph-name="rooster" unicode="&#57346;" d="M476 338c-7 25-22 44-44 58-1 1-2 1-3 2-3 4-6 8-9 12-16 16-34 27-57 29-25 3-47-5-65-21-17-15-28-33-34-54-2-10-4-19-4-29 0-9 0-17-1-26-2-8-5-17-12-23-9-9-20-10-32-8-12 2-22 7-32 14-8 6-15 14-21 22-8 10-17 20-29 26-2 1-4 3-8 3 1 0 1 0 1-1 19-13 19-39 0-52-2-1-2-2-1-3 1-5 2-10 2-16-1-7-3-14-5-21-3-11-2-22 4-32 15-23 48-33 72-21 4 2 8 5 12 7-24-21-49-21-76-5 0 0 0 0 0-1 1 0 1 0 1 0 20-19 44-25 71-19 19 5 34 17 39 38 0 2 1 2 1 3 4 2 7 4 10 7 11 13 10 29-2 40 0 0-1 0 0 1 7-5 12-11 12-20 0 0 1-1 1-2 0-2-1-5-1-7-3-10-9-16-17-21-1-1-2-2-3-3-3-16-13-27-26-35-16-8-33-11-51-7-17 3-32 10-44 25-9 10-12 23-10 36 0 2 1 3 1 5 0 1 1 2 1 3-6-7-14-12-24-14-10-2-19 0-27 6 0-1 0-1 0-1l5-8c9-17 21-29 36-40 10-7 21-15 31-23 1 0 1 0 2-1 0 0 0 0 1-1l1 0c7-6 11-15 12-24 0-8-2-16-6-23-1-2-2-2-4-2-3 1-7 2-11 4-4 1-8 0-11-3 5-3 11-2 16-5-5-1-11 0-16 0-4 0-8-2-10-7 9 2 17 0 26-1-3-1-5-2-7-2-2-1-4-3-5-5-1-1-2-2-1-3 1-1 2 0 4 0 4 2 9 4 14 5 3 1 7 1 10 3 1 2 3 2 5 3l17 4-10 2-1 0c-3 1-5 5-3 9 0 1 1 0 1 0 2-1 3-2 5-1-6 6-5 16 1 21 1-5 7-7 9-12 0-1 1-3 1-4 0-5-1-9-1-15-1-3-1-5-1-6 0-1-1-1-1-1-1-2-3-3-5-3l-7 2c-5 2-9 1-13-2 4-5 11-1 16-4-1-1-2-2-4-2-4 0-9 0-13-1-3 0-6-1-8-4-1-1-3-3-2-4 1-1 3 0 4 0 7 2 14 2 21 2-4-3-8-4-10-8 0-1-1-2-1-3 1-1 3 0 4 0 6 3 12 5 19 8 3 1 6 2 8 5 1 1 1 1 2 1 9-1 16 4 24 3-3 3-5 4-8 5-2 0-5 0-8-1-5 0-7 1-7 6 0 2 0 3 1 4 2-1 3-2 6-1-6 3-6 8-5 12 1 4 0 7 3 10 5 4 6 11 10 15 1 2 1 4 3 5 2 1 3 3 4 5 6 2 10 4 15 7 15 12 29 25 42 40 3 2 5 5 7 8 1-1 1-3 1-4 0-4 0-9 0-13 0 0 0-1 0-1 1-1 1 0 2 0 3 3 5 7 7 12 4 15 1 28-8 41-1 1-2 2-2 3 1 0 2-1 2-2 11-11 15-25 17-39 1-5 1-11 2-17 3 4 5 8 6 13 1 5 1 10 1 15 2-11 2-22 2-33 12 13 13 29 11 46-3 17-11 30-24 42 1 0 1 0 2 0 1-1 2-1 2-2 13-9 19-21 23-35 2-11 3-22 2-33 0-2 0-3 2-5 13 17 14 35 9 54-2 5-4 9-6 14-3 5-7 9-10 13-4 3-8 7-12 9-5 3-10 5-15 6-5 2-10 2-15 2 12 1 23-1 33-8 19-12 29-30 30-53 0-5 2-9 5-14 8 18 2 35-8 51 8-9 14-20 20-31 3 7 3 13 1 18-2 14-9 25-20 34-17 15-37 20-59 15-2 0-4-2-6-2-1-1-3-2-5-3 8 6 17 8 27 9 35 2 62-23 67-50 1-2 2-3 4-4 1 6 1 15-2 22-8 18-22 31-41 37-8 2-15 3-23 3 8 1 15 1 22-1 15-4 27-11 36-24 1-2 2-3 4-4 16-10 29-23 38-39 3-5 6-11 8-16-3 25-8 50-30 66 1 0 1 0 1 0 12-3 22-9 32-16 5-4 11-8 17-11 1-1 2-1 2-1 1 1 0 2 0 3-8 13-18 24-32 32-26 15-54 21-83 19-8-1-15-2-23-3 2 1 4 1 6 2 19 6 38 7 58 3 15-4 29-10 43-18 17-11 32-25 45-41l7-8c0 0 0 1 0 1-5 10-10 19-15 28-10 14-21 28-35 39-14 10-29 17-47 19-3 1-6 0-11 1 17 8 33 9 49 0 10-7 19-15 28-23 2-2 4-4 7-6-8 18-18 35-33 47 1 0 1 0 2-1 11-8 21-18 28-30 5-7 10-16 14-24 1-1 2-2 3-3 0 0 0 0 0 0 0 1 0 2 0 3 0 10-2 20-6 29-5 14-12 26-23 36-14 12-32 16-50 16-18 0-34-6-49-15-4-3-8-6-13-10 0 1 0 1 0 1 4 3 8 7 12 9 20 15 43 23 69 21 16-1 33-6 47-14 2-1 4-3 5-5 11-17 15-37 16-57 0-5 0-11 0-17 6 21 7 42 1 63 15-14 33-44 28-90 0 1 0 1 1 1 7 21 8 42 2 64z m-161 65c21 16 43 18 66 10-23 2-45-1-66-10z m-207-159c12 13 15 28 12 45-1 1-1 2 1 4 11 6 17 20 14 31-2 7-6 13-13 19l-4 3c12-1 21-6 30-13-1 3-2 5-3 7-4 14-12 26-23 36-7 6-14 13-20 20-1 1-2 2-2 2-6 1-11 3-17 5-3 2-6 3-10 4-8 1-15-3-18-10-1-2-1-3 1-4 1 0 2-1 3-3 2-3 4-7 6-11 2-4 5-9 9-12 5-6 11-6 16 0 4 6 6 12 4 19 0 2-1 3-1 5 2-2 3-4 4-7 1-6 0-11-2-16-4-7-9-11-18-8 0-9-2-16-6-23-4-7-9-12-18-13-1 0-1-1-1-2-4-16-6-33-4-51 1-9 4-19 11-26 14-16 35-16 49-1z m-38 143c-3 0-7 2-7 6 0 3 4 6 7 6 4 0 6-3 6-6 0-4-2-6-6-6z m-34 17c0 3 1 4 3 5 3 1 3 1 1 4-1 2-2 4-1 7 0 1 0 2 1 2 1 1 1-1 2-2 0-2 2-4 4-5 1 0 2-1 3 0 0 0-1 1-1 2-2 4-3 9-2 14 0 1 0 1 1 1 0 1 0 2 2 2 1 0 1-1 1-2 1-3 2-5 3-7 0-1 1-2 2-3 1-1 1-1 2 0 1 5 2 9 5 13 3 2 5 4 7 5 1 0 2 0 3-1 0 0 0-1 0-2-2-2-3-5-3-8-1-4 1-5 4-3 8 3 15 8 20 15 1 2 2 2 3 0 2-4 2-7 0-11-1-5-4-8-9-10 8-1 14 1 22 5 3 3 6 6 9 8 2 2 3 2 4-1 1-6-2-12-7-16 0 0-1 0-2-1 2-1 4-1 5-2 2 0 2-1 2-2 0-4-2-7-5-8-5-3-11-3-17-2-5 2-11 4-16 7-5 2-10 2-15 2-7-1-12-6-13-13-1-1-1-2-3-1-4 0-9 1-12 5-1 0-2 1-3 3z m8-72c-5 4-8 10-8 17 0 10 6 18 13 24 3 3 6 5 10 7 1 1 2 1 3-1 2-3 4-7 6-11 2-2 4-5 6-7 1-1 1-1 1-3-1-9-4-18-12-25-5-6-13-6-19-1z m-10 48c-1 0-1 0-2 0 3 6 7 8 12 11 8 4 12 2 16-6 0-1 0-2-1-3-3-1-5-2-8-1-6 1-12 0-17-1z m40 13c0-2-1-4-4-4-2 0-4 1-4 4 0 2 2 4 4 4 2 0 4-2 4-4z"/>
<glyph glyph-name="seahorse-1" unicode="&#57347;" d="M375 188c-6 15-15 27-23 39-13 17-12 35 1 51 3 3 3 6 1 9-3 4-6 8-8 13-2 3-3 6 0 8 5 4 3 7 1 11-2 4-4 7-5 10-5 8-4 13 6 16 8 4 9 6 3 13-5 6-4 8 0 13 4 4 4 7 0 11-6 5-12 10-17 14-7 6-9 12-4 20 2 5 1 8-4 10-5 2-10 4-15 5-13 5-15 10-9 22 1 2 3 4 1 6-1 2-4 2-6 1-7 0-14-2-21-1-8 0-13 4-15 12 0 3 0 7-4 9-5 1-7-2-10-5-3-3-6-6-9-9-3-3-6-5-10-7-4-3-8-2-12 2-5 5-7 4-8-2-2-5-3-12-5-17-2-7-4-7-10-5-2 1-4 3-6 1-1-1-1-4 0-6 1-5 3-10 3-15 0-3 0-6-3-6-7-2-6-6-3-10 1-2 2-3 3-4 2-4 2-6-2-8-18-8-21-30-5-42 4-3 2-5 0-8-8-7-17-12-26-15-4-1-7-1-11 0-9 2-13-2-13-12 0-10 3-18 9-26 5-5 10-11 18-9 7 2 8 9 10 15l0 0c2 12 9 21 17 29 8 8 17 13 28 10 16-3 31 0 46-2 7 3 14 6 20 10-5-21 2-41 3-60 1-12 1-24 3-35 3-12 7-22 13-33 11-17 25-33 36-50 7-11 14-22 17-34 1-6 1-12-1-18 2 6 0 14-1 20-4 12-10 21-17 31-12 17-25 33-36 50-6 10-10 21-13 33-2 11-2 24-3 36-1 19-8 36-3 57-6-4-11-4-17-7 8-6 10-16 8-26l-6-39c-3-22-2-43 8-63 8-17 21-30 36-41 11-9 22-16 31-26 6-6 10-12 11-20l0 0 0 0c0-1 1-9-2-16l-1-1c-4-11-10-21-17-29-8-9-17-14-29-12-17 4-30 18-32 39-2 14 7 29 20 32 11 4 28-6 33-18 4-9 2-13-6-17-8-3-10-2-14 7-2 5-5 5-8 2-5-5-7-11-6-18 1-6 5-10 11-11 9-3 17-2 24 4 13 11 16 34 8 48-9 13-22 17-38 17-30-1-52-31-48-59 2-17 13-28 26-38 26-19 60-15 81 9 16 19 25 41 30 64 7 24 5 48-4 71z m-171 163c-3-2-6-3-8-3-11 0-19 7-20 17-1 8 6 17 14 19 3 1 5 1 5-4 0-9 3-16 10-23 4-3 3-5-1-6z m25 1c-17 0-30 14-30 30 0 16 13 30 30 30 17 0 31-14 31-30-1-17-14-30-31-30z m0 44c-9 0-15-7-15-16-1-9 6-16 15-16 10 0 17 7 17 16 0 9-7 16-17 16z m2-15c-4 0-6 3-6 7 0 4 3 6 6 6 5 0 7-3 7-6 0-5-3-7-7-7z m-39-13c-3 0-5-2-5-5 1-3 2-4 5-4 3 0 5 1 5 5 0 2-2 4-5 4z"/>
<glyph glyph-name="icofont-95" unicode="&#57348;" d="M480 106l0-1c-1 0-3-1-4-1-8-3-15-7-23-7-10-1-19-1-29 1-7 3-14 3-22 2-8-2-16-3-24-3-13 1-26 4-38 7-2 0-3 1-4 2-3 5-7 5-12 4-2 0-5 0-7-1-2 0-4 0-5-2-3-3-7-5-11-6-10-1-19-1-29-1-24-1-47-1-70-2-3 0-7 0-10 1-6 2-12 4-19 4-1 0-2 0-2 1 0 1 1 1 2 1 3 1 7 3 10 3 13 1 26 1 39 3 17 2 32 7 48 10 2 0 3 1 5 2-2 2-4 2-6 2-28 2-55 6-83 13-14 3-29 7-40 18-2 2-2 0-3-1-2-7-5-13-7-19-3-7-7-10-15-11-22-1-44-4-66-6-7 0-15-2-23-1l0 2c5 2 10 5 15 7 11 7 22 13 33 19 6 3 9 7 11 13 4 18 9 35 13 52 1 9 0 16-2 25-3 18-8 36-11 54-1 11-4 20-3 31 0 9 3 17 4 25 1 4 1 8 2 11 1 7-1 11-4 15l-21 22c-2 2-3 5-4 9-2 6 2 10 8 9 5 0 9-1 15-1 6 0 13 0 20 2 9 3 18 3 27 0 7-2 14-3 21-7 4-4 8-8 10-13 4-12 8-23 12-35 2-9 8-18 13-26 13-17 24-34 34-52 6-13 16-22 29-28 29-12 53-31 74-53 8-10 17-19 23-30 5-8 9-18 12-28 2-4 2-8 1-12-2-3 0-4 2-5 8-4 16-6 25-7 12-3 24-6 36-8 11-2 22-3 33-1 7 1 14 0 20-2z"/>
<glyph glyph-name="snail" unicode="&#57351;" d="M348 421c-1 5-3 11-2 16 2 8 5 15 11 20 1 1 15 11 34 0 8-6 13-20 10-29-3-8-7-15-15-19-3-1-3-5-1-7 2-8 4-16 7-25 2-3 2-4-2-5-4 0-9-3-13-5-2 0-2 0-4 2-5 9-11 18-16 28-4 7-6 16-9 24z m72-44c5-1 10-1 15-2 4-1 4 0 5 4 0 9 3 18 4 27 1 3 2 5 6 5 8 1 16 4 23 11 7 7 9 22 4 32-12 20-30 17-32 17-8-2-14-7-19-13-4-5-5-11-6-17-2-9-4-18-4-27 0-11 1-22 2-34 0-3 0-3 2-3z m57-94c-5-16-15-30-31-37-1-1-2-2-2-4 0-10-1-21-1-31 0-17-4-33-8-49-4-18-12-34-22-48-9-13-19-24-31-34-11-9-23-15-34-21-6-2-12-4-18-6-58-21-170-8-170-8-14 1-27 3-41 4-16 2-32 5-48 8-13 4-32 4-37 17-1 2-2 6 0 8 1 2 4 3 6 4 10 3 20 4 30 4 6 0 12 2 19 2-5 3-9 8-13 12-7 7-13 14-18 22-3 5-6 9-8 14-29 58-14 112-14 112 2 10 6 19 11 28 6 12 14 24 23 34 8 9 17 17 27 24 12 8 24 15 39 20 14 4 28 7 43 8 12 0 25 0 37-3 13-3 27-7 40-14 16-9 30-20 42-33 15-17 27-36 33-58 2-7 5-13 5-21 1-8 2-16 3-25 0 2 1 2 1 3 2 11 6 22 8 33 3 18 5 36 6 55 0 14 4 26 13 37 11 14 25 22 43 25 20 2 36-5 51-18 9-9 15-20 18-33 2-11 2-22-2-31z m-181-48c-2 11-6 21-11 31-7 14-17 26-30 36-17 13-37 21-59 23-10 1-19 1-29-1-12-1-23-6-34-11-22-12-39-28-50-51-10-20-13-42-10-64 2-15 6-30 14-42 9-16 22-30 38-40 9-6 19-10 30-13 9-4 18-1 27 3 5 3 10 6 15 10 12 10 22 24 28 39 4 10 3 21 3 30-1 18-6 34-21 44-11 8-23 11-37 7-8-3-11-13-11-19 2-7 8-12 17-13 6 0 11-2 15-7 4-6 5-12 3-18-3-6-8-11-15-12-11-1-21 1-31 7-11 6-19 15-23 28-3 9-3 19-2 28 2 12 8 22 16 30 7 7 17 12 27 14 10 1 19 1 29 0 9-1 17-4 25-9 10-5 19-13 26-22 7-9 12-19 15-31 2-7 4-15 5-24 2-25-4-48-17-70l4 4c12 9 21 18 28 30 8 13 13 27 16 43 3 13 3 27-1 40z"/>
<glyph glyph-name="snail-filled" unicode="&#57353;" d="M467 305c-26 57-91 87-151 73-78-17-146-134-66-208-5-9 2-13 7-17 44-43 116-48 167-12 53 38 71 106 43 164z m-84-158c-43-23-103-12-132 22 20-8 39-18 61-23 64-10 127 58 108 117-10 30-38 50-68 48-25-2-44-19-49-43-4-22 7-37 26-45 15-7 28-1 37 11 7 11 7 21-1 31-7 6-14 8-23 4-7-3-11-9-8-18 2-5 6-7 12-6 11 2 6 10 5 17 9-4 11-10 6-17-4-6-9-11-17-8-8 3-14 7-15 17 0 15 7 25 21 26 19 3 31-7 34-25 5-17-3-31-18-40-16-10-33-9-49 1-33 21-33 70-1 96 42 34 107 11 126-44 16-45-8-96-55-121z m-304 196l0 0 0 1z m119-77c-4 20-8 39-16 58-16 32-45 44-79 31-8-3-16-8-24-12-54-76-15-190 78-216 39-11 79-12 126-4-59 34-76 86-85 143z m-164 124c-4-6-2-13 3-14 20-4 28-22 42-32-2 21-27 28-30 49 0 4-10 3-15-3z m45-47l0 1c0 0 0 0 0 0 0 0 0 0 0-1z"/>
<glyph glyph-name="squirrel" unicode="&#57357;" d="M452 77c-8 1-17 3-25 5-16 6-22 13-24 30-2 29-2 59 1 89 2 10 4 21 10 30 6 9 16 10 25 4 3-2 7-5 12-6 9-3 18 2 19 13 0 6-2 12-5 17-5 8-12 15-19 22-7 7-14 12-20 19-13 14-10 33 6 44 6 3 12 6 18 8 7 3 14 5 20 9 9 7 12 16 8 27-2 6-6 11-12 16-16 17-36 29-57 37-9 3-14 8-16 16-1 5-3 9-6 14-4 5-10 6-15 0-2-3-3-6-4-10-2-4-3-10-4-16-2 3-3 6-5 8-3 6-7 13-13 18-8 6-17 3-19-7-1-3-2-7-2-10-1-16 2-31 4-46 1-15 3-30-1-44-5-19-15-36-26-52-16-24-35-46-52-71-22-32-38-65-38-105 0-3-1-2-3-1-10 4-18 10-22 21-4 11-3 22-1 33 6 25 15 47 23 70 9 26 16 52 16 79-1 42-19 73-57 91-39 17-84 9-112-19-26-27-36-82-4-114 25-26 65-33 96-16 7 4 13 8 18 13 0-2-1-3-2-4-9-12-21-22-32-32-15-12-32-23-46-36-27-24-44-52-42-88 2-36 16-63 47-82 21-13 45-14 69-9 27 5 46 19 58 45 1 1 1 2 2 2 2-6 4-11 7-15 16-25 41-36 68-37 53-1 105 0 157 0 5 0 11 1 15 4 10 6 13 16 6 25-6 7-13 9-21 11z m-55 325c0 6 5 11 11 11 6 0 11-5 11-11 0-6-4-11-11-11-6 0-11 5-11 11z"/>
<glyph glyph-name="tiger" unicode="&#57358;" d="M462 238c-10 6-16 15-22 25 7 2 15 3 21 9-15 1-21 9-26 21 9 0 17 0 23 10-13 0-22 4-28 14-6 9-10 17-11 28 0 4-1 8-2 12-1 3 0 5 1 8 11 22 17 45 16 70-2 15-9 23-23 24-20 2-38-3-55-13-2-2-4-2-5 1-2 5-6 7-11 9-4 1-7 1-11 2 3 2 6 2 10 3-12 5-24 10-38 9 3 3 7 4 10 5-4 4-10 5-15 5-14 0-26-5-36-14-3-3-5-3-8-1-10 10-22 15-36 15-5 0-10-1-15-5 4-1 7-2 11-5-14 1-26-4-38-9 3-1 7-1 10-3-3-1-5-1-8-1-6-2-11-3-14-9-2-4-3-4-6-2-17 10-35 15-55 13-13-2-21-9-22-24-2-25 5-48 16-70 1-2 2-3 1-5-2-8-2-17-4-25-5-13-11-25-24-31-5-1-9-1-13-2 5-9 14-9 23-9-5-12-12-20-26-21 6-7 14-7 21-9-7-11-14-21-24-27 6-9 15-8 24-6 3 1 4 1 3-3-3-15-9-28-20-39-1 0-2-1-1-2 11-2 21 0 29 9 2 2 4 2 5-1 3-7 5-14 7-21 2-12 2-23 0-36 11 5 18 14 23 24 7-12 10-23-1-34 7-2 15-4 22-1 8 3 10 10 12 18 3-7 2-14 0-20-4-11-4-21-3-32 1-5 2-11 5-16 2 13 6 23 14 32-1-9-3-18-2-27 1-9 5-17 13-23 1 14 4 21 9 24 0-17 5-32 22-41 0 4-2 6-1 9 6-8 11-15 21-18-2 6-2 11 1 18 6-11 14-18 25-18 11 0 20 7 26 17 3-6 3-11 1-17 10 3 15 10 21 18 1-3-1-5-1-9 8 4 14 10 18 18 3 8 4 16 4 25 6-8 9-17 9-27 16 15 14 33 11 51 8-9 11-19 13-32 4 6 6 11 6 16 1 11 0 22-3 32-2 7-4 13 0 20 4-19 14-23 33-17-8 13-8 24 0 33 5-9 12-18 22-22 1 0 1 0 1 1l0 2c-3 18-1 35 6 51 2 4 3 6 8 2 7-9 16-10 28-8-13 12-19 25-22 40-1 4-1 5 4 4 7-2 15-3 21 3 2 1 3 3 0 5z m-27 1c-6 3-6 3-5-4 0-14 4-28 14-40-7 1-10 5-14 9-4 3-5 3-8-1-9-15-14-31-13-49-8 5-11 13-14 22-7-11-14-21-14-34-1-2 0-4 1-6 0-2 3-3 1-4-2-2-4-1-6-1-6 2-7 8-8 14-1 5-1 10-2 16-13-10-17-23-13-38 2-6 5-12 4-21-4 8-8 13-14 16-2 0-4 1-6 1-3 1-4 0-3-3 2-7 4-15 5-22 1-6 1-12-1-19-3 10-8 15-16 17-7 2-7 1-6-5 1-6 2-12 1-18-1-3-2-5-3-7-1-2-2-4-4-4-3 0-1 3-2 4-1 1-2 3-3 5-1 2-3 5-5 4-4-1-1-4-1-6 1-8-3-14-9-19-2 4-2 8-5 12-3 2-5 3-7-1-3-5-6-10-11-14 0-1-1-2-2-1-2 0-1 2-1 3 0 1 0 1 0 2-1 6-5 13-8 13-4 0-9-8-9-14 0-1 0-3 0-5-7 4-11 10-14 16-2 4-4 3-7 0-2-3-4-7-4-11-8 5-11 12-10 21 1 1 2 3 0 4-2 1-3-1-4-2-4-3-5-7-6-12-6 4-8 9-8 15-1 6 0 12 2 18 0 3-1 3-4 3-9-2-16-7-19-18-2 8-2 16 0 22 1 6 3 13 4 19 1 3 0 4-3 3-9-2-15-7-20-17-1 7 1 12 2 16 2 7 5 15 3 23-2 8-7 14-13 21-2-6-2-11-2-17-1-8-5-13-11-14-3 0-5 0-3 4 2 3 2 6 1 10-1 11-7 21-14 31-3-9-6-17-14-22 0 7 0 13-1 20-2 11-7 22-13 31-2 2-2 2-4 1-3-3-6-5-8-7-2-2-5-4-8-4 9 12 13 26 14 41 0 5 0 6-5 4-5-3-10-5-17-3 11 11 18 25 25 39-6-2-10-7-16-6 9 9 13 21 18 33-5-1-8-4-13-3 7 5 12 12 16 19 6 9 7 19 9 29 0 3 0 5 1 7 3 5 1 9-1 13-10 20-17 41-15 64 0 15 6 21 22 21 16 0 31-3 45-13 7-5 14-5 22 0 3 2 6 3 9 5-5 3-9 2-15 1 3 3 6 4 10 4 8 2 17 2 25 3 1 0 3-1 4 1 0 1-2 2-3 3-4 3-9 3-14 4 9 3 17 3 26 0 3 0 5-1 7-2 3 0 6-3 7 0 2 2 0 5-2 7-2 3-5 5-8 7 12-1 23-7 30-16 4-4 7-4 10 0 8 9 19 15 30 16-3-2-7-5-9-9-1-2-2-4-1-5 1-2 4-1 5-1 6 2 12 5 19 5 5 1 11 0 19-2-7-1-12-1-17-4-1-1-2-2-2-3 0-2 2-1 4-1 8-1 17-1 25-3 3 0 7-1 11-4-7 0-11 2-17-1 6-3 11-6 17-8 5-2 9 0 13 2 13 8 27 13 42 14 20 2 29-7 28-27-2-22-7-44-19-62 0-2-1-3 0-4 3-5 3-12 4-18 3-17 10-31 24-42-5-1-8 2-13 3 5-12 9-23 18-32-4-1-4-1-16 5 7-14 14-28 25-39-6-2-11 0-16 2z m-119-70c-10 1-19 3-27 7 0-4 4-6 5-9-6-1-10 0-15 3-9 5-14 12-19 20-3 5-2 8 1 11 1 2 2 2 3 4l-16 0c2-2 3-3 4-5 2-2 4-4 2-7-4-9-9-16-17-21-6-4-12-6-19-5 2 3 5 5 6 8-18-7-36-8-55 2 5-7 10-10 17-12 2-1 3-1 4-4 7-12 10-25 5-38-1-5-2-9-1-14 1-7 3-8 9-4 3 3 5 7 9 5 4-3 3-8 3-11 0-2-1-3-1-4-3-10 1-16 11-17 6-1 12 0 17 2 9 3 19 2 29-1 7-1 14-2 21 0 7 2 10 7 8 14-2 5-3 9-1 13 1 4 3 5 6 3 2-1 4-3 5-4 6-4 8-3 9 4 0 4 0 9-1 13-5 13-3 25 3 37 2 3 3 5 7 6 6 2 11 5 16 12-10-6-19-8-28-8z m-98-45c-8 9-11 19-12 30 0 1 0 2 1 2 5 1 9 5 15 5-6-12-4-24-4-37z m13-34c-3-1-5 0-5 3-2 6-3 12-1 20 3-6 6-12 9-17 1-3-1-5-3-6z m10-1c-2 0-4 1-4 3 0 2 1 3 3 3 2-1 3-2 4-4 0-2-2-2-3-2z m4 61c-3-1-3 1-4 4-1-1-1-2-1-2-2-2-4-5-8-4-3 1-1 5-1 8 0 4 3 5 8 2 2-1 2-3 4-3 2 0 4 0 4-3 0-1-1-2-2-2z m10 2c-1-1-2-3-3-3-2 0-3 1-3 3 0 2 1 2 3 2 1 0 3 0 3-2z m6-3c-2 0-2 1-3 3 0 2 1 2 3 2 1 0 3 0 3-2 0-2-1-3-3-3z m11-60c-2 0-3 0-3 2 1 2 2 4 4 4 2 0 3-1 3-3-1-2-2-3-4-3z m0 64c-1 0-1-2-1-2-1-1-2-2-3-1-1 0-2 1-2 2 0 2 0 3 1 3 3 0 5 2 8 4 2 1 5 3 7 0 1-3 1-7-1-11-1-1-3 0-4 1-2 1-3 3-5 4z m15-61c-1-2-3-3-5-2-2 1-4 3-3 5 3 6 6 11 9 18 2-8 1-14-1-21z m20 62c-2-11-4-21-12-30 0 13 2 25-4 37 6 0 10-4 15-5 1 0 1-1 1-2z m-43 51l1-1-1 0c0 1 0 1 0 1z m-8 232c3-4 5-8 8-11 9-10 21-13 34-14 10-1 19-2 29-4 8-3 16-7 22-13-11 4-23 8-36 8 12-5 22-12 31-22-20 11-40 16-63 15 9 4 18 4 27 3 0 2-2 2-3 2-12 5-24 7-36 3-5-1-10-3-10-8 0-5 5-7 10-8 10-2 19-2 28-2 7 0 14 1 20-3-7 0-14 1-21-3 15-8 31-15 37-32-5 5-10 9-17 12 0-3 2-5 1-8-13 17-31 21-52 19 18-6 33-14 46-28-8 3-15 5-22 8 1-4 4-6 2-10-4 4-9 8-14 11-7 3-13 6-19 0-2-1-3 0-4 0-5 5-10 4-15 1-7-2-12-7-18-12-1 4 1 6 2 9-7-1-14-5-22-7 13 14 29 22 46 28-17 3-33-2-52-18 0 2 1 4 2 7-8-3-13-7-18-12 1 6 6 12 15 19 7 5 14 9 23 13-8 4-15 3-23 3 5 3 10 3 14 3 12 1 23 0 34 2 4 1 8 2 10 5 3 2 3 4 0 7-2 3-6 4-10 6-13 2-24 0-36-5-1 0-1-1-3-2 11 1 20 1 28-3-11 0-21 0-32-3-11-2-20-6-30-12 8 10 19 16 30 22-13-1-25-4-37-9 7 7 17 12 28 15 8 1 16 2 24 3 18 1 33 7 42 25z m133-143c-2-7-2-14 0-21 2-4 3-9 3-14-5 4-7 2-10-2-2-4-5-8-6-13-2-5-5-6-10-5-5 2-9 4-12 7-4 4-5 4-8-1-2-5-3-10-5-16-2 9 0 23 5 30 3 5 7 4 10 2 4-3 6-1 9 2 5 6 9 13 8 22-1 7-1 14 1 21 1 5-1 10-3 15-5 8-9 16-10 26 0 2-1 5 1 7 2-4 4-8 6-12 3-7 8-11 15-14 9-2 11-7 10-16-1-6-2-11-4-18z m-266-22c2 8 2 16 0 24-2 6-3 13-4 19 0 6 2 11 8 12 13 4 18 14 23 25 0 1 0 2 1 3 2-7 0-13-1-19-3-6-6-11-9-17-2-4-3-7-2-11 1-10 1-20 1-29 0-6 6-17 11-19 2-1 3 0 5 1 7 4 11 2 13-6 4-8 5-16 3-25-2 5-3 10-5 14-3 6-4 7-9 2-3-3-6-5-11-7-5-1-8 0-10 6-1 5-5 9-8 15-3 3-5 2-8-2 0 6 1 10 2 14z m292 8l3-16c0-1 2-3-2-3-3 1-3-3-3-5-2-9-5-18-11-25 4 10 1 20 2 30 0 2-1 5-2 7-6 11-5 22-3 34 1 3 1 6 2 9 2 13-2 24-12 33-1 2-3 3-2 5 1 16-1 31-12 45 8-5 19-21 31-47-2-1-3 1-5 0 6-9 10-18 13-28 1-3 2-6 3-8 0-1 0-2-1-2-6 0-4-5-3-8 1-5 3-9 4-14 1-1 4-3-1-3-2 0-1-3-1-4z m-321-16c1 5 3 9 3 15 0 1 3 5-2 5-1 0 0 2 0 3 2 4 4 9 5 14 0 3 3 7-3 8-2 0-1 2-1 4 4 12 9 24 16 35-2 0-3-2-6-1 9 16 16 34 30 46-9-13-11-28-10-44 0-2-1-3-2-4-11-11-14-23-11-37 0-5 1-9 2-14 1-6 1-13-2-20-6-13-4-26-3-39 1-2 2-3 1-4-6 7-10 16-11 24-1 3 1 8-5 6-1 0-1 2-1 3z m121 48c-1 2-2 4-2 6 0 9-4 15-10 20-5 6-11 7-18 3-10-6-20-11-33-10 4-5 8-9 11-17 0 3 0 4 1 5 0 2 1 5 3 5 3 0 4-2 6-5 2-4 1-6-1-9-7-9-11-19-11-30 4 6 7 12 12 17 4 4 8 8 14 7 4-1 8-1 11 0 2 1 3 2 5 0 1-2 0-3-1-5-2-4-5-7-9-9-3-3-7-5-11-8 12 1 19 6 27 12-2-13-8-26 2-37-1 10 3 19 6 28 4 9 3 18-2 27z m-12-2c-3-2-5-2-9-2-6 0-12 2-16 8-3 6-1 13 6 15 9 3 21-2 25-10 1-4-1-9-6-11z m143 14c3-1 3-5 3-8 1 0 1 0 1-1 2 7 7 11 10 16-10 0-19 2-27 7-12 9-20 7-29-6-2-4-4-8-4-13 0-2 0-5-2-7-6-9-6-19-1-30 3-8 6-17 5-26 9 12 4 25 2 37 20-11 20-11 26-10-2 1-3 2-5 3-5 3-10 7-14 12-1 2-2 4-1 6 2 2 3 1 5 0 2 0 4-1 7-1 9 3 15-2 21-9 3-5 6-9 9-15 0 13-4 24-12 32-4 5 0 7 1 10 1 2 3 3 5 3z m-17-14c-7-4-18-3-23 3-3 3-3 7 1 11 4 4 9 8 15 8 8 0 13-3 14-8 2-5-1-10-7-14z m89-73c-6-10-1-21-3-32-2 4-3 8-9 7-7-1-12-3-16-9-2-3 0-5 2-8 2-4 5-7 5-12-11 5-11 5-14-5-3 5-6 3-10 3-8-1-15-5-22-7 1 1 2 1 3 2 3 4 3 7-2 9-3 2-8 2-13 2 6 3 11 2 16 1 7-2 15-3 22 1 2 2 6 3 6 6 0 3-3 4-5 6-5 3-10 6-15 9-7 5-12 11-11 20 2-1 2-3 3-5 5-7 15-13 24-11 6 1 7 3 6 8-2 8-1 14 2 21 1-4 1-7 2-11 3-15 6-17 19-7 4 3 7 7 10 12z m-245-50c-3 0-6 0-8-1-4 0-7-1-8-5-1-3 2-5 5-7-4 0-5 2-7 3-4 2-8 4-13 3-1 0-2 0-2 1-5 3-8 2-10-3-2 3 0 8-5 8-4 1-6-2-10-3 1 4 3 8 6 12 4 6 3 9-3 13-3 1-5 2-7 3-8 3-10 1-13-5-2 2-3 3-2 6 3 8 2 15-1 22 0 1 0 2-1 3 5-8 11-13 19-17 4-2 6-2 8 3 3 6 3 13 4 21 4-7 4-14 3-21-1-6 1-8 7-9 10-1 20 5 24 15 0 0 0 1 1 1 1-6-1-11-5-16-4-4-8-6-13-9-3-2-6-3-9-6-4-3-4-5 0-8 6-4 13-6 20-4 5 1 9 2 14 2 2 0 4 0 6-2z m73 145c-6 3-8 3-18 0 4 8 18 15 27 11 1 0 2 0 3 0 10 3 21-1 27-12-6 3-12 5-18 1 15-6 17-7 19-15-6 4-13 6-19 6-4 0-6-1-6-6-1-8-1-16-4-24-3 2-3 5-3 9-1 5-2 10-3 16 0 4-1 5-5 5-6 0-13-1-19-6 3 10 11 12 19 15z m2-127l0-1z m0 0c-8 2-17 5-24 11-9 5-11 12-5 22 2 3 3 6 5 8 1-1 1-2 1-2 0-8 1-12 9-12 7 0 13-1 19-5 2-1 4-1 6 0 6 4 13 5 20 6 8 1 8 1 9 10 0 1 0 2 1 2 3-4 6-8 7-13 2-6-1-12-7-16-7-5-16-9-24-11-2 7 3 11 7 15 3 3 7 4 11 4 2 1 4 0 4 2 0 2-1 3-3 4-1 1-3 1-5 1-7-1-12-3-18-5-3-2-6-2-9 0-6 2-11 5-18 5-3 0-7 0-8-4 0-4 4-3 6-3 11-2 17-10 16-19z m16 0c1 0 1 0 1 0l0-1c0 0-1 1-1 1z m-110 201c7 10 16 17 26 23 12 6 25 11 39 14 6 1 10 4 12 11 6-8 13-12 23-7-3-8-9-11-16-12-14-1-28-4-41-7-15-6-30-12-43-22z m105 40c10-3 14-2 23 7 2-7 7-9 13-11 16-3 32-9 45-18 8-5 14-10 19-19-2 2-3 2-4 3-21 15-45 23-71 26-3 0-7 1-11 1-6 1-11 4-14 11z m-165-34c0-1 0-2 0-3-4 6-4 27 0 34 1 2 3 3 6 4 15 4 43-8 52-21 2-3 3-5 3-9-9 8-17 14-28 17-18 6-31-2-33-22z m268 9c-1-1-2-2-4-3 0 5 3 8 6 11 13 12 28 18 46 18 7 0 9-2 11-9 2-10 2-20-1-31-1 5-1 9-2 13-3 13-14 18-28 16-11-3-19-8-28-15z m-65-214c11 11 12 22 5 35 5-1 7-4 8-8 1-4 2-8 3-12 1-4 3-6 8-5 4 1 6 4 5 8-2 8-3 16-3 24-1 9 4 18 11 22-2-5-5-10-6-16 0-7 2-14 4-22 0-3 2-6 2-10 2-6-2-11-8-11-10 1-19-2-29-5z m-81 0c-2 1-4 1-5 1-7 3-15 5-23 4-8-1-11 5-9 13 1 5 3 11 4 17 3 10 2 20-4 28 4-1 6-3 8-7 5-12 4-23 0-36-1-6 0-8 5-10 4-1 6 1 7 4 1 4 2 9 4 13 1 3 2 7 7 8-5-13-5-24 6-35z m199 194c0-12-4-22-11-32-5 13-13 23-21 33 7-5 14-10 20-16 7 10 7 24-1 33 8-2 13-8 13-18z m-306-32c-8 11-12 22-11 34 1 9 5 14 14 16-6-4-8-10-7-16 0-6 1-12 5-17 6 6 12 11 20 16-8-10-16-21-21-33z m58-146c3-6 7-13 12-17 4-3 9-6 14-1 1 1 2 1 2 0 5-6 13-8 20-9-7-3-14-2-21-1-6 1-11 2-16 5-10 5-12 14-11 23z m159-26c-9-3-19-5-29-2 8 2 15 4 20 10 1 1 2 1 3 0 4-4 8-2 12 0 6 4 11 11 14 20 1-17-5-24-20-28z m-28-14c13 0 25 4 36 11-4-11-8-14-18-13-6 0-12-2-18 2z m-120 11c12-7 23-11 38-10-4-3-7-3-9-3-5 0-10-1-15-1-6 1-9 3-14 14z m21 126c0-4-4-10-5-9-3 0-6 6-6 10 1 2 2 5 3 6 1 1 2 2 3 2 2-1 0-2 0-3-1-1 0-3 1-2 5 2 3-3 4-4z m126-2c0-3-1-6-5-7-2-1-5 5-5 9 0 3 1 5 3 7 0 1 1 2 3 2 1-1 0-2-1-3-1-2 0-3 2-2 4 0 3-3 3-6z"/>
<glyph glyph-name="turtle" unicode="&#57360;" d="M265 366c42 0 79-20 107-54 25-27 41-60 53-94 1-2 1-3-2-4-9-5-19-9-28-13-2 0-3 0-5 1-11 10-21 21-32 31-2 1-3 4-3 6 1 14 0 28 0 43 0 3 1 5 4 7 3 3 7 6 10 9 2 2 4 4 1 7-3 3-4-1-6-2-3-2-6-5-8-7-3-3-5-4-9 0-13 11-27 22-40 33-3 2-3 4-3 7 0 3 0 7 0 10 0 2-1 2-3 2-2 0-3 0-3-2 0-1 0-1 0-2 2-10-3-16-10-21-10-7-19-15-28-22-2-3-4-3-7 0-9 8-19 16-29 24-2 2-3 4-3 7 0 5 0 11 0 16 0 2 0 3-3 3-2 0-3-2-3-3 0-6 0-11 0-17 0-2 0-4-3-6-13-10-25-20-38-30-2-2-4-1-6 1-5 7-11 13-16 19-2 2-4 3-6 1-3-2 0-3 1-4 7-8 14-16 20-24 2-2 3-4 3-7 0-11 0-22 0-33 0-2-1-4-3-6-6-5-12-11-18-16-2-2-4-2-6 0-13 13-27 26-41 39-2 2-3 3-2 5 10 16 18 34 34 46 26 22 56 36 89 45 13 3 26 5 42 5z m160-161c-6-19-11-37-17-55-1-3-2-4-5-4-18 0-37 0-55 0-5 0-5 2-3 5 2 4 5 7 8 10 2 2 4 3 7 5-14-2-28-4-41-5-26-3-53-3-79-1-22 1-44 4-65 9-3 1-5 0-6-2-3-6-6-12-9-17-1-3-3-4-5-4-15 0-31 0-45 0-4 0-5 1-4 5 1 10 7 19 16 25 5 2 3 4 0 6-9 9-21 14-32 19-16 6-31 12-46 17-10 3-15 12-10 21 5 10 14 19 25 24 9 4 18 3 28-1 12-5 23-13 32-23 17-15 32-31 48-47 2-2 5-4 8-5 36-13 75-18 114-15 47 2 91 13 134 33 0 0 1 0 2 0z m-350 48c1 4-1 6-6 7-6 0-12-5-12-10-1-5 2-9 7-9 5-1 11 6 11 12z m188 10c0 8 0 17 0 25 0 2 1 4 3 6 10 10 21 18 31 28 3 2 4 2 6 0 14-12 29-24 43-35 2-2 3-4 3-6 0-14 0-28 0-41 0-3-1-6-3-8-14-10-27-21-40-31-2-2-4-2-6 0-12 10-23 20-34 29-2 2-3 3-3 6 0 9 0 17 0 27z m-9-2c1-7 0-15 0-23 0-3-1-5-3-7-8-6-17-13-25-20-2-2-3-2-5 0-14 12-28 23-42 35-1 2-1 3-1 5 0 12 0 23 0 35 0 3 1 4 2 5 12 9 24 18 35 26 3 2 4 2 6 0 10-7 20-15 30-22 2-2 3-4 3-7 0-8 0-17 0-27z m15-80c-12-1-24 0-36 1-5 0-6 1-7 6-1 10 3 17 12 22 6 5 11 9 17 14 3 2 4 1 6 0 12-10 24-21 36-31 4-3 4-7 3-10 0-3-4-2-6-2-8 0-16 0-25 0z m-49 12c0-10 0-10-10-8-5 1-10 2-16 3-18 3-29 17-41 28-1 2 0 3 1 4 6 6 12 11 19 18 1 1 2 1 4-1 13-11 27-23 41-34 4-3 1-7 2-10z m87-6c-1 3 1 6 3 8 13 10 26 20 38 30 3 2 5 3 7 0 9-8 18-17 26-24 4-3 2-4-1-5-22-9-46-13-70-14-5 0-3 3-3 5z m120 42c16-5 31-9 45-14 3-2 9-4 8-8-1-4-6-4-10-4-15-1-29-3-43-8 6 11 5 22 0 34z"/>
<glyph glyph-name="whale" unicode="&#57361;" d="M71 297c6 4 12 9 19 13 5 4 11 7 18 9 1 0 2-1 2 1 0 1-1 2-1 2-12 10-26 17-42 18-11 0-21-3-29-11-7-7-8-20-2-27 5-7 12-8 18-9 6 0 12 2 17 4z m325-109c1-6 4-8 10-10 7-4 15-4 23-4 10 0 11-1 7-11-1-3-3-6-4-8-6-8-12-14-19-20-18-13-38-20-60-14-16 4-27 15-37 27-22 29-44 59-74 81-11 9-22 16-35 22-20 9-41 15-63 17l-2 0c0 12-1 23 0 34 1 14 9 23 21 27 4 1 9 2 13 2 7 1 13 2 19 6 8 6 10 14 5 22-4 5-9 9-15 10-17 4-33-4-40-21-1-3-2-6-3-10-1 1-1 2 0 3 1 9 3 18 1 28-1 10-5 20-12 27-7 7-15 11-25 12-15 1-29-2-39-15-9-12-9-26 2-37 6-7 14-12 23-17 10-6 21-11 30-20 7-5 12-13 13-22 1-9 1-19 0-28-14 1-29 0-43-5-32-12-54-54-47-91 5-28 23-45 46-58 2 0 3 0 5 0 26-1 52-2 78-1 9 0 15 10 25 7 5-2-3-7-6-8-7-2-14-2-20-2-23 0-45 0-68 0l0-2c7-3 13-5 21-5 73 0 145 0 219 0 12 0 25 1 36 6 31 9 55 28 62 61 0 3 2 3 4 3 9 0 17 0 26 4 4 2 7 4 7 9-28-6-56-6-84 1z m-219-47c0-5-4-7-10-7 1 2 5 5 1 8-2 2-4 1-6-1 0 6 3 9 8 8 4 0 7-4 7-8z"/>
<glyph glyph-name="hummingbirds" unicode="&#57362;" d="M429 377c-26 0-52-2-78-3-3 0-5 1-7 3-4 5-8 10-13 14-34 28-77 7-85-26-1-3-1-5-2-8-1 1-2 1-4 2-63 40-128 79-192 118-2 1-4 1-6 3l-1 0c0-11 2-21 6-31 11-35 30-66 54-93 13-16 28-29 45-40 6-3 12-5 18-6 5 0 10-1 14-1-9-1-17 0-26-1-25-2-43-13-54-35-8-17-10-35-9-54 0-23 5-45 10-67 10-41 25-80 41-119 0 0 0-1 1-1 0 1 0 2 0 3 3 19 6 38 10 57 0 3 0 6-1 9-3 8-5 16-7 23-2 8-4 15-5 22 6-12 10-24 17-37 2 8 3 15 6 22 4 9 2 17-3 25-4 5-6 10-8 17 5-8 11-15 17-21 1-2 2-2 3 0 4 7 7 13 12 20 2 2 1 3-1 5-5 4-10 8-15 12 7-2 13-6 19-9 1 0 2-1 4 0 7 7 14 13 22 19-21 3-42 5-61 13 1 1 1 1 1 1 1 0 1 0 2-1 19-5 38-7 57-4 48 10 85 54 87 102 1 11 6 20 14 26 7 7 16 11 25 14 33 11 67 16 102 20 11 2 22 3 33 4-14 3-28 4-42 3z m-119-13c-5 0-9 4-9 9 0 6 4 10 9 10 5 0 9-4 9-10 0-5-4-9-9-9z m-152 52c25-16 50-31 75-47 1-1 3-1 4-2l1 1c-23 38-54 70-84 103 0-16 0-32 0-49 0-3 1-4 4-6z"/>
<glyph glyph-name="sailor-moon-filled" unicode="&#57364;" d="M138 461c-25 0-46-21-46-46 0-7 2-13 4-18-1-1-1-1-2-2-3-5-84-117-84-231 0-4 0-8 1-12 0-1 0-2 0-3 0-3 1-6 1-9 0-1 0-1 0-2 1-3 1-5 2-7 0-1 0-1 0-1 12-44 46-48 58-48 17 0 51 11 51 51 0 27-22 41-37 41-16 0-35-14-35-31 0-5 5-10 10-10 6 0 11 5 11 10 0 4 8 11 14 11 5 0 16-6 16-21 0-29-25-31-30-31-12 0-30 5-37 31 5 18 39 131 83 187-10 12-16 27-16 44 0 10 3 20 7 28 7 15 19 26 34 33 2 4 5 8 8 11 5 6 10 10 16 14-8 7-18 11-29 11z m226 0c-12 0-22-4-30-11 6-4 12-8 17-14 3-3 6-7 8-11 15-7 27-18 34-32 4-9 6-19 6-29 0-17-6-32-16-44 45-56 79-168 84-187-8-26-25-31-37-31-5 0-31 2-31 31 0 15 12 21 17 21 6 0 14-7 14-11 0-5 5-10 10-10 6 0 11 5 11 10 0 17-19 31-35 31-16 0-37-14-37-41 0-40 33-51 51-51 12 0 46 4 58 48 0 0 0 0 0 1 0 2 1 5 1 7 0 1 1 1 1 2 0 3 1 6 1 9 0 1 0 2 0 3 0 4 1 8 1 12 0 114-81 226-84 231 0 0 0 0-1 0 0 1-1 1-1 2 2 5 4 11 4 18 0 25-21 46-46 46z m-159-21c-15 0-29-6-39-17-4-5-7-10-9-15-13-3-24-12-29-24-4-7-5-13-5-20 0-17 9-32 23-40 2-6 5-11 10-15l7-67-74-28c-4-1-7-4-7-8 0-4 1-7 4-10l63-43c-4-2-6-6-6-11l11-82c0-3 2-6 5-7 3-2 6-2 9-1l62 27c6-5 13-7 21-7 8 0 15 2 21 7l62-27c3-1 6-1 9 1 3 1 5 4 5 7l10 82c1 5-2 9-6 11l63 43c4 3 5 6 5 10-1 4-3 7-7 8l-74 28 7 67c4 4 8 9 10 15 14 8 23 23 23 40 0 7-2 13-5 19-6 13-17 22-30 25-2 5-5 10-8 15-10 11-24 17-39 17-18 0-35-8-46-21-11 13-29 21-46 21z m25-102c9 0 12-4 12-5 1-3 5-5 9-5 4 0 7 2 9 5 0 1 3 5 11 5 4 0 7-1 10-3 4-3 6-8 6-12 0-2 0-3-1-4-1-6-5-10-10-11-4-1-7-5-7-10 0-5 3-8 7-10 3-1 7-1 11-1 10 0 20 3 27 10 4 0 7 0 10 1l-6-58c-9-13-27-27-42-38-14-10-22-14-25-16-4 2-12 6-25 16-16 11-33 25-42 38l-7 58c4-1 7-1 11-1 10-9 24-13 38-9 4 2 7 5 7 10 0 5-3 9-7 10-5 1-9 5-10 11-1 1-1 2-1 4 0 4 2 9 6 12 3 2 6 3 9 3z m-23-51c-7-1-15-2-23-6l11-5c0 0-1-6 0-13 0 2 2 3 5 3 3 0 5-2 5-5 0-3-2-5-5-5-2 0-4 1-5 3 1-6 2-11 5-13l29 0c0 0 5 2 6 26 1 6-4 11-10 13-5 1-11 2-18 2z m88 0c-7 0-14-1-19-2-6-2-10-7-10-13 2-24 7-26 7-26l29 0c2 2 4 7 5 13-1-2-3-3-5-3-3 0-5 2-5 5 0 3 2 5 5 5 2 0 4-1 5-3 0 7 0 13 0 13l10 5c-7 4-15 5-22 6z m-80-11c5 0 8-5 8-12 0-7-3-13-8-13-5 0-8 6-8 13 0 7 3 12 8 12z m72 0c4 0 8-5 8-12 0-7-4-13-8-13-5 0-9 6-9 13 0 7 4 12 9 12z m-47-40c-3 0-6-4-4-8l10-20c2-4 7-4 9 0l11 20c1 4-1 8-5 8z m-71-13l48-87-12 3-91 63z m163 0l56-21-91-63-12-3z m-119-37c0 0 1-1 1-1 17-12 32-20 32-20 3-2 7-2 10 0 0 0 14 8 31 20 1 0 2 1 2 1l-25-45c-4 1-8 2-13 2-5 0-9-1-14-2z m-47-57l50-14c-1-2-1-5-1-7 0-5 1-9 2-12l-45-20z m170 0l-7-53-45 20c2 3 3 7 3 12 0 2-1 5-1 7z m-85-6c8 0 15-7 15-15 0-9-7-16-15-16-9 0-15 7-15 16 0 8 6 15 15 15z"/>
<glyph glyph-name="naruto-filled" unicode="&#57365;" d="M336 492c-2-1-4-2-5-3l-44-44-33 43c-2 2-6 4-9 4-3-1-6-3-8-6l-25-42-64 36c-3 2-7 2-11 0-3-3-5-7-4-11l8-47-57 8c-4 1-8-1-10-4-3-4-3-8-1-11l25-42-51-26c-4-2-6-6-6-10 1-5 4-8 8-9l39-8-16-40c-1-4 0-9 3-11 3-3 8-4 12-1l5 2 0-26c1-7 6-13 12-16-2-2-4-4-6-6-5-7-8-18-7-31 4-37 28-50 35-53 3-17 11-38 27-59 15-24 87-58 102-58 15 0 87 35 102 58 15 21 23 43 26 59 7 3 31 16 36 53 1 13-2 24-7 31-2 2-3 4-5 5 7 3 12 9 13 17l0 22c3 0 7 2 9 4 2 3 2 7 0 10l-16 42 41 17c4 1 7 5 7 9 0 4-2 8-6 9l-52 27 25 52c2 4 1 8-1 11-3 3-7 4-11 3l-60-17-8 50c0 3-2 5-4 7-2 2-5 2-8 2z m-89-28l32-40c2-3 4-4 7-4 3 0 6 1 8 3l37 37 7-42c0-3 2-5 5-7 2-2 5-2 8-1l48 14-19-41c-1-2-2-5-1-8 1-2 3-4 6-5l40-21-29-12c-3-1-5-3-6-5-1-3-1-6 0-8l8-20-46 23c0 0 0 0-1 0 0 1-1 1-2 1 0 0 0 0-1 0 0 0 0 0 0 0l-194 0c-1 0-1 0-1 0-2 0-3-1-4-1 0 0 0 0-1 0l-10-7-36-20 10 24c1 3 1 6-1 9-1 2-4 4-7 5l-22 4 35 17c3 2 5 4 5 7 1 2 1 5-1 8l-19 32 50-7c3 0 7 1 9 3 2 3 3 6 3 9l-7 40 53-30c5-3 11-1 14 4z m-52-157l122 0c12 0 21-9 21-20l0-21c0-11-9-20-21-20l-122 0c-12 0-21 9-21 20l0 21c0 11 9 20 21 20z m-65-82l252 0c1-2 2-4 4-6 2-1 6-4 8-8 3-4 5-9 4-17-4-33-26-39-26-39-3-1-4-3-6-5-4 3-9 5-14 7-11 4-22 7-22 7-1 0-3 0-4 0-5-1-9-5-9-10 0-5 3-9 8-10 0 0 10-3 20-6 4-2 9-4 12-6 1-1 1-1 2-1 0-1 0-2 1-3-2-5-5-12-9-18-3 4-8 8-12 12-9 6-17 10-17 10-2 1-4 1-6 1-4 0-8-4-9-8-1-5 2-9 6-11 0 0 7-4 14-9 3-3 6-5 8-8 2-3 3-4 3-5 0-1 0-3 1-4-4-4-9-9-15-13-2 4-6 9-9 12-5 7-11 13-11 13-2 2-6 3-10 2-3 0-6-3-7-7-1-4 0-8 3-10 0 0 5-5 9-10 4-5 6-10 7-12-21-12-44-22-50-22-6 0-29 9-51 22 1 1 4 7 8 12 4 5 9 10 9 10 3 3 4 8 2 12-2 4-6 6-11 5-2 0-4-1-5-2 0 0-6-6-11-13-3-4-7-8-9-13-6 5-11 9-15 13 1 2 1 4 1 5 0 1 1 2 3 5 2 3 5 5 8 8 7 5 14 9 14 9 5 1 8 7 7 13-2 5-8 8-13 6-1 0-2 0-3-1 0 0-8-4-17-10-4-4-9-8-12-12-1-1-1-1-1-1-3 6-6 12-8 18 0 1 1 2 1 4 1 0 1 0 2 1 3 2 8 4 12 6 10 3 20 6 20 6 5 1 9 6 8 12-2 6-7 9-13 8 0 0 0 0 0 0 0 0-11-3-22-7-5-2-10-4-15-7-1 2-3 3-6 4 0 0-22 7-26 40-1 8 1 13 4 17 3 4 6 7 8 8 2 1 4 4 5 6z m70-10c-9 0-16-7-16-15 0-9 7-16 16-16 8 0 15 7 15 16 0 8-7 15-15 15z m112 0c-8 0-15-7-15-15 0-9 7-16 15-16 9 0 16 7 16 16 0 8-7 15-16 15z"/>
<glyph glyph-name="sailor-moon" unicode="&#57366;" d="M138 461c-25 0-46-21-46-46 0-7 1-13 4-18-1-1-1-1-2-2 0 0-84-114-84-231 0-12 1-23 4-32 0-1 0-3 1-4 3-13 9-22 16-30 13-12 28-16 41-16 0 0 12 0 25 6 12 6 26 21 26 45 0 13-6 24-13 31-7 6-16 10-24 10-9 0-16-3-23-9-6-5-12-12-12-22 0-3 2-7 5-9 3-1 7-1 11 0 3 2 5 6 5 9 0 1 1 4 4 6 3 3 8 5 10 5 1 0 6-2 10-5 4-4 6-8 6-16 0-17-7-23-14-27-8-3-16-4-16-4-9 0-18 3-26 11-5 4-9 11-11 20 1 4 12 42 30 88 18 44 43 92 68 115 4-5 9-9 14-12 2-5 5-10 8-13l8-69-74-28c-4-1-7-4-7-8 0-4 1-7 4-10l63-43c-4-2-6-6-6-11l11-82c0-3 2-6 5-7 3-2 6-2 9-1l62 27c6-5 13-7 21-7 8 0 15 2 21 7l62-27c3-1 6-1 9 1 3 1 5 4 5 7l10 82c1 5-2 9-6 11l63 43c4 3 5 6 5 10-1 4-3 7-7 8l-74 28 7 69c4 3 7 8 8 13 6 3 11 7 15 12 25-23 50-71 67-115 19-46 30-84 31-88-3-9-7-16-11-20-8-8-18-11-26-11 0 0-8 1-16 4-8 4-15 10-15 27 0 8 3 12 7 16 3 3 8 5 10 5 2 0 6-2 10-5 3-2 4-5 4-6 0-3 2-7 5-9 3-1 7-1 10 0 4 2 6 6 6 9 0 10-6 17-13 22-6 6-13 9-22 9-8 0-17-4-24-10-8-7-13-18-13-31 0-24 13-39 26-45 13-6 25-6 25-6 12 0 28 4 41 16 7 8 12 17 16 30 1 1 1 3 1 4 2 9 4 20 4 32 0 117-84 231-84 231-1 1-1 1-2 2 2 5 4 11 4 18 0 25-21 46-46 46-19 0-35-11-42-27-8 4-16 6-25 6-17 0-35-7-46-21-11 14-29 21-46 21-9 0-18-2-25-6-7 16-23 27-42 27z m0-21c13 0 23-9 25-22-2-3-3-7-5-11-3-1-5-2-7-3-8-3-14-7-19-13-11 3-19 12-19 24 0 14 11 25 25 25z m226 0c14 0 25-11 25-25 0-12-9-21-20-24-4 6-11 10-18 13-2 1-5 2-7 3-2 4-3 8-5 11 1 13 11 22 25 22z m-159-20c14 0 32-12 36-24 2-4 5-7 10-7 4 0 8 3 10 7 3 12 22 24 36 24 9 0 17-4 23-11 0 0 0 0 0 0 3-3 6-8 7-12 1-4 4-7 8-8 0 0 0 0 1 0 9-1 16-7 20-14 0 0 0-1 0-1 2-3 2-6 2-10 0-3 0-5-1-8 0-1-1-2-1-3-2-5-7-10-13-13-3-1-5-4-6-7-2-9-10-16-20-16-1 0-3 1-5 1-2 0-4 0-5 0 0 1 0 3 0 5 0 11-5 21-14 28 0 0 0 0 0 0-6 5-13 7-22 7-9 0-15-3-20-6-5 3-11 6-21 6-8 0-16-2-22-7 0 0 0 0 0 0-8-7-13-17-13-28 0-2 0-4 0-5-2 0-4 0-6 0-1 0-3-1-5-1-10 0-17 7-20 16 0 3-3 6-5 7-6 3-11 8-14 13 0 1 0 2-1 3 0 3-1 5-1 8 0 4 1 7 3 10 0 0 0 1 0 1 4 7 11 13 20 14 5 0 8 4 9 8 1 4 4 9 7 12 0 0 0 0 0 0 5 7 14 11 23 11z m-97-40c5-4 10-7 16-9-1-2-1-5-1-7 0-3 0-6 1-9-33-27-59-79-78-126-5-12-9-24-13-35 11 89 66 172 75 186z m285 0c10-14 65-97 76-186-4 11-9 23-14 35-19 47-44 99-77 126 1 3 1 6 1 9 0 2 0 5-1 7 6 2 11 5 15 9z m-163-42c6 0 8-2 10-3 2-1 2-2 2-2 1-3 5-5 9-5 4 0 7 2 9 5 0 0 0 1 2 2 1 1 4 3 9 3 4 0 7-1 10-3 3-3 6-7 6-12 0-2 0-3-1-4 0 0 0 0 0 0-1-6-5-10-10-11-4-1-7-5-7-10 0-4 3-8 7-10 3-1 7-1 11-1 10 0 19 4 26 10 1 0 3 0 4 0 3 0 5 0 7 1l-6-58c-9-13-27-27-42-38-14-10-22-14-25-16-4 2-12 6-25 16-16 11-33 25-42 38l-7 58c3-1 5-1 7-1 2 0 3 0 5 0 7-6 16-10 26-10 4 0 7 0 11 1 4 2 7 6 7 10 0 5-3 9-7 10-5 1-9 5-10 11-1 1-1 3-1 4 0 5 2 9 6 12 3 2 6 3 9 3z m-23-51c-7-1-15-2-23-6l11-5c0 0-1-6 0-13 0 2 2 3 5 3 3 0 5-2 5-5 0-3-2-5-5-5-2 0-4 1-5 3 1-6 2-11 5-13l29 0c0 0 5 2 6 26 1 6-4 11-10 13-5 1-11 2-18 2z m88 0c-7 0-14-1-19-2-6-2-10-7-10-13 2-24 7-26 7-26l29 0c2 2 4 7 5 13-1-2-3-3-5-3-3 0-5 2-5 5 0 3 2 5 5 5 2 0 4-1 5-3 0 7 0 13 0 13l10 5c-7 4-15 5-22 6z m-80-11c5 0 8-5 8-12 0-7-3-13-8-13-5 0-8 6-8 13 0 7 3 12 8 12z m72 0c4 0 8-5 8-12 0-7-4-13-8-13-5 0-9 6-9 13 0 7 4 12 9 12z m-47-40c-3 0-6-4-4-8l10-20c2-4 7-4 9 0l11 20c1 4-1 8-5 8z m-71-13l48-87-12 3-91 63z m163 0l56-21-91-63-12-3z m-119-37c0 0 1-1 1-1 17-12 32-20 32-20 3-2 7-2 10 0 0 0 14 8 31 20 1 0 2 1 2 1l-25-45c-4 1-8 2-13 2-5 0-9-1-14-2z m-47-57l50-14c-1-2-1-5-1-7 0-5 1-9 2-12l-45-20z m170 0l-7-53-45 20c2 3 3 7 3 12 0 2-1 5-1 7z m-85-6c8 0 15-7 15-15 0-9-7-16-15-16-9 0-15 7-15 16 0 8 6 15 15 15z"/>
<glyph glyph-name="onigiri" unicode="&#57367;" d="M512 209l-27 0c1 1 1 1 1 1 12 20 12 43 0 63l-94 164c-12 19-32 31-54 31-23 0-43-12-55-31l-27-48-27 48c-12 19-32 31-55 31-22 0-42-12-54-31l-94-164c-12-20-12-43 0-63 0 0 0 0 1-1l-27 0 0-106 30 0 0-60 125 0 0 60 202 0 0-60 125 0 0 60 30 0z m-203 213c6 10 17 16 29 16 11 0 22-6 28-16l94-164c6-10 6-22 0-33-6-10-16-16-28-16l-29 0 0 85-92 0-38 65z m-257-197c-6 11-6 23 0 33l94 164c6 10 17 16 28 16 12 0 23-6 29-16l94-164c6-10 6-22 0-33-5-9-14-15-24-16-2 0-32 0-34 0l0 85-130 0 0-85-29 0c-12 0-22 6-28 16z m87-16l0 55 70 0 0-55z m184 1c10 17 11 37 4 54l46 0 0-55-51 0c1 1 1 1 1 1z m-198-137l-65 0 0 30 65 0z m-95 60l0 46 452 0 0-46z m422-60l-65 0 0 30 65 0z"/>
<glyph glyph-name="restaurant" unicode="&#57368;" d="M476 421l20 0 0 91-480 0 0-91 20 0-36-107 0-35c0-16 6-30 15-41l0-238 482 0 0 238c9 11 15 25 15 41l0 35z m-220-176c-18 0-33 15-33 34l0 17 66 0 0-17c0-19-15-34-33-34z m20 176l13-95-66 0 13 95z m43-95l-13 95 54 0 22-95z m-113 95l-13-95-62 0 22 95z m-80-125l67 0 0-17c0-19-15-34-33-34-19 0-34 15-34 34z m2-72c9-6 20-9 32-9 19 0 36 9 48 23 8-10 20-18 33-21l0-187-113 0z m143-7c13 3 25 11 33 21 12-14 29-23 48-23 12 0 23 3 32 9l0-194-113 0z m81 28c-18 0-33 15-33 34l0 17 67 0 0-17c0-19-15-34-34-34z m61 81l-23 95 54 0 32-95z m-367 156l420 0 0-31-420 0z m22-61l54 0-22-95-64 0z m28-125l0-17c0-19-14-34-33-34-18 0-33 15-33 34l0 17z m-51-78c6-2 12-3 18-3 13 0 25 4 35 11l0-196-53 0z m369-188l0 196c10-7 22-11 35-11 6 0 12 1 18 3l0-188z m68 249c0-19-15-34-33-34-19 0-33 15-33 34l0 17 66 0z m-291-132l30 0 0-30-30 0z m100 0l30 0 0-30-30 0z"/>
<glyph glyph-name="service" unicode="&#57369;" d="M484 171c-2 57-26 111-66 151-40 40-92 63-147 67l0 18 26 0 0 30-81 0 0-30 25 0 0-18c-55-4-107-27-147-67-40-40-64-94-66-151l-28 0 0-35c0-33 27-60 61-60l391 0c33 0 60 27 60 60l0 35z m-228 188c106 0 193-83 198-188l-396 0c5 105 92 188 198 188z m226-223c0-16-14-30-30-30l-391 0c-17 0-31 14-31 30l0 5 452 0z m-396 62l29-4c0 0 6 38 31 59l-20 23c-33-29-40-76-40-78z"/>
</font>
</defs>
</svg>
